<svg width="25" height="17" viewBox="0 0 25 17" fill="none" xmlns="http://www.w3.org/2000/svg">
<path d="M23.6806 6.94446H1.31944C0.590735 6.94446 0 7.53519 0 8.2639V8.40279C0 9.1315 0.590735 9.72224 1.31944 9.72224H23.6806C24.4093 9.72224 25 9.1315 25 8.40279V8.2639C25 7.53519 24.4093 6.94446 23.6806 6.94446Z" fill="url(#paint0_linear)"/>
<path d="M23.6806 13.8889H1.31944C0.590735 13.8889 0 14.4796 0 15.2083V15.3472C0 16.0759 0.590735 16.6667 1.31944 16.6667H23.6806C24.4093 16.6667 25 16.0759 25 15.3472V15.2083C25 14.4796 24.4093 13.8889 23.6806 13.8889Z" fill="url(#paint1_linear)"/>
<path d="M23.6806 0H1.31944C0.590735 0 0 0.590735 0 1.31944V1.45833C0 2.18704 0.590735 2.77778 1.31944 2.77778H23.6806C24.4093 2.77778 25 2.18704 25 1.45833V1.31944C25 0.590735 24.4093 0 23.6806 0Z" fill="url(#paint2_linear)"/>
<defs>
<linearGradient id="paint0_linear" x1="1.72074" y1="9.15888" x2="3.10799" y2="0.552698" gradientUnits="userSpaceOnUse">
<stop stop-color="#9D9792"/>
<stop offset="0.08" stop-color="#CECAC5"/>
<stop offset="0.14" stop-color="#ECE8E3"/>
<stop offset="0.26" stop-color="#EDEAE7"/>
<stop offset="0.36" stop-color="#ECE8E3"/>
<stop offset="0.49" stop-color="#9D9792"/>
<stop offset="0.56" stop-color="#CECAC5"/>
<stop offset="0.61" stop-color="#ECE8E3"/>
<stop offset="0.72" stop-color="#EDEAE7"/>
<stop offset="0.84" stop-color="#ECE8E3"/>
<stop offset="1" stop-color="#9D9792"/>
</linearGradient>
<linearGradient id="paint1_linear" x1="1.72074" y1="16.1033" x2="3.10799" y2="7.49713" gradientUnits="userSpaceOnUse">
<stop stop-color="#9D9792"/>
<stop offset="0.08" stop-color="#CECAC5"/>
<stop offset="0.14" stop-color="#ECE8E3"/>
<stop offset="0.26" stop-color="#EDEAE7"/>
<stop offset="0.36" stop-color="#ECE8E3"/>
<stop offset="0.49" stop-color="#9D9792"/>
<stop offset="0.56" stop-color="#CECAC5"/>
<stop offset="0.61" stop-color="#ECE8E3"/>
<stop offset="0.72" stop-color="#EDEAE7"/>
<stop offset="0.84" stop-color="#ECE8E3"/>
<stop offset="1" stop-color="#9D9792"/>
</linearGradient>
<linearGradient id="paint2_linear" x1="1.72074" y1="2.21443" x2="3.10799" y2="-6.39176" gradientUnits="userSpaceOnUse">
<stop stop-color="#9D9792"/>
<stop offset="0.08" stop-color="#CECAC5"/>
<stop offset="0.14" stop-color="#ECE8E3"/>
<stop offset="0.26" stop-color="#EDEAE7"/>
<stop offset="0.36" stop-color="#ECE8E3"/>
<stop offset="0.49" stop-color="#9D9792"/>
<stop offset="0.56" stop-color="#CECAC5"/>
<stop offset="0.61" stop-color="#ECE8E3"/>
<stop offset="0.72" stop-color="#EDEAE7"/>
<stop offset="0.84" stop-color="#ECE8E3"/>
<stop offset="1" stop-color="#9D9792"/>
</linearGradient>
</defs>
</svg>
