<svg width="22" height="22" viewBox="0 0 22 22" fill="none" xmlns="http://www.w3.org/2000/svg">
<g clip-path="url(#clip0)">
<g filter="url(#filter0_f)">
<path d="M0.541138 21.4864L2.0154 16.1281C1.10893 14.5602 0.625786 12.7792 0.630771 10.9584C0.630771 5.25279 5.29271 0.613953 11.0206 0.613953C13.7998 0.613953 16.4098 1.69058 18.3672 3.64533C20.3296 5.60008 21.4105 8.19984 21.4055 10.9634C21.4055 16.6689 16.7435 21.3078 11.0156 21.3078H11.0106C9.27239 21.3078 7.56395 20.8712 6.04483 20.0476L0.541138 21.4864ZM6.30385 18.1722L6.61761 18.3608C7.94251 19.1446 9.46162 19.5564 11.0106 19.5613H11.0156C15.7723 19.5613 19.6472 15.7064 19.6472 10.9634C19.6472 8.66621 18.7507 6.50807 17.122 4.88067C15.4933 3.25335 13.3217 2.36034 11.0156 2.36034C6.25401 2.36034 2.379 6.21531 2.379 10.9583C2.379 12.5808 2.83223 14.1634 3.69891 15.5328L3.9031 15.8602L3.03152 19.0305L6.30385 18.1722Z" fill="black" fill-opacity="0.24"/>
</g>
<path d="M1.01242 20.9333L2.41922 15.8228C1.55175 14.3238 1.09542 12.6239 1.09604 10.8937C1.09604 5.45488 5.54279 1.0304 10.9978 1.0304C13.6491 1.0304 16.1332 2.05935 18.0024 3.92121C19.8715 5.78317 20.8997 8.26249 20.8997 10.8986C20.8997 16.3373 16.4529 20.7617 10.9978 20.7617H10.9929C9.33521 20.7617 7.70704 20.3453 6.26088 19.5613L1.01242 20.9334V20.9333Z" fill="url(#paint0_linear)"/>
<path d="M0.653381 21.291L2.10933 15.9992C1.21412 14.4509 0.736913 12.6919 0.741897 10.8937C0.741897 5.25895 5.346 0.677643 11.0028 0.677643C13.7475 0.677643 16.3249 1.74083 18.2582 3.67136C20.1962 5.60188 21.2636 8.16937 21.2587 10.8986C21.2587 16.5333 16.6546 21.1146 10.9978 21.1146H10.993C9.27956 21.1139 7.5936 20.6861 6.08876 19.87L0.653381 21.291V21.291ZM6.34451 18.0179L6.6544 18.2041C7.96288 18.9783 9.46309 19.385 10.993 19.3899H10.9979C15.6954 19.3899 19.5223 15.5828 19.5223 10.8986C19.5223 8.63 18.6369 6.49857 17.0284 4.89146C15.4199 3.28434 13.2753 2.40237 10.9979 2.40237C6.29535 2.40237 2.46847 6.20949 2.46847 10.8937C2.46847 12.4959 2.91603 14.059 3.77197 15.4112L3.97366 15.7346L3.11283 18.8656L6.34451 18.0179Z" fill="white"/>
<path d="M8.43511 6.61616C8.24321 6.18986 8.04152 6.18002 7.85959 6.17514C7.71203 6.17026 7.5399 6.17026 7.36768 6.17026C7.19555 6.17026 6.92003 6.23395 6.68396 6.4887C6.44781 6.74354 5.78867 7.36091 5.78867 8.62022C5.78867 9.87448 6.70854 11.0896 6.83642 11.2611C6.96429 11.4326 8.61214 14.0932 11.2142 15.1172C13.3786 15.9698 13.8213 15.7983 14.2886 15.7542C14.7608 15.7101 15.8036 15.1368 16.02 14.5391C16.2315 13.9413 16.2315 13.4317 16.1676 13.3239C16.1037 13.2161 15.9315 13.1525 15.6757 13.025C15.4199 12.8976 14.1607 12.2803 13.9246 12.1921C13.6885 12.1039 13.5163 12.0647 13.3491 12.3195C13.1769 12.5742 12.6851 13.1475 12.5374 13.3191C12.3899 13.4905 12.2374 13.5101 11.9816 13.3828C11.7258 13.2554 10.8995 12.9858 9.92063 12.1137C9.15819 11.4375 8.6417 10.5996 8.49406 10.3449C8.34651 10.0901 8.47937 9.9528 8.60724 9.82551C8.72034 9.71277 8.86299 9.52659 8.99095 9.3796C9.11883 9.23262 9.16309 9.12485 9.2467 8.9533C9.33032 8.78184 9.29096 8.63486 9.22703 8.50748C9.16309 8.38002 8.66138 7.12079 8.43511 6.61616Z" fill="white"/>
</g>
<defs>
<filter id="filter0_f" x="-5.45886" y="-5.38605" width="32.8644" height="32.8724" filterUnits="userSpaceOnUse" color-interpolation-filters="sRGB">
<feFlood flood-opacity="0" result="BackgroundImageFix"/>
<feBlend mode="normal" in="SourceGraphic" in2="BackgroundImageFix" result="shape"/>
<feGaussianBlur stdDeviation="3" result="effect1_foregroundBlur"/>
</filter>
<linearGradient id="paint0_linear" x1="10.9556" y1="20.932" x2="10.9556" y2="1.0292" gradientUnits="userSpaceOnUse">
<stop stop-color="#20B038"/>
<stop offset="1" stop-color="#60D66A"/>
</linearGradient>
<clipPath id="clip0">
<rect width="22" height="22" fill="white"/>
</clipPath>
</defs>
</svg>
