<svg width="19" height="19" viewBox="0 0 19 19" fill="none" xmlns="http://www.w3.org/2000/svg">
<path d="M9.5 0C4.25325 0 0 4.25325 0 9.5C0 14.7467 4.25325 19 9.5 19C14.7467 19 19 14.7467 19 9.5C19 4.25325 14.7467 0 9.5 0Z" fill="#40B3E0"/>
<path d="M14.1226 5.46472L12.4257 14.0198C12.4257 14.0198 12.1884 14.6131 11.5358 14.3284L7.62019 11.3264L6.19638 10.6382L3.79956 9.8313C3.79956 9.8313 3.43173 9.70083 3.39611 9.41605C3.36048 9.13127 3.81144 8.97705 3.81144 8.97705L13.3393 5.23939C13.3393 5.23939 14.1225 4.89531 14.1225 5.46487" fill="white"/>
<path d="M7.31931 13.9236C7.31931 13.9236 7.20501 13.913 7.06251 13.462C6.92024 13.0111 6.19638 10.638 6.19638 10.638L11.9512 6.98352C11.9512 6.98352 12.2834 6.78179 12.2716 6.98352C12.2716 6.98352 12.3309 7.01914 12.1528 7.18524C11.9749 7.35142 7.63214 11.2551 7.63214 11.2551" fill="#D2E5F1"/>
<path d="M9.12156 12.4773L7.57284 13.8894C7.57284 13.8894 7.45171 13.9813 7.31931 13.9237L7.61588 11.3008" fill="#B5CFE4"/>
</svg>
