<svg width="71" height="71" viewBox="0 0 71 71" fill="none" xmlns="http://www.w3.org/2000/svg">
<path d="M55.4686 41.3969C54.4167 49.7345 48.9408 56.8501 41.1445 60.0058C39.3038 60.7483 40.4639 63.61 42.3202 62.8675C51.1374 59.2942 57.3558 51.2195 58.5469 41.7681C58.7944 39.8036 55.7161 39.4169 55.4686 41.3969ZM33.998 6.0353V36.9419H64.9045C65.4924 49.4716 58.6088 61.4753 47.4852 67.2915C36.5642 72.9995 22.9533 71.9167 13.0672 64.5536C1.68375 56.0767 -2.94295 40.7472 1.91424 27.3822C6.7111 14.1564 19.9524 5.37014 33.998 6.0353ZM29.543 15.4712C31.5385 15.2237 31.1363 12.1455 29.1717 12.393C19.7203 13.584 11.6456 19.8025 8.07235 28.6197C7.32985 30.4759 10.1916 31.6361 10.9341 29.7953C14.0897 21.999 21.2053 16.5231 29.543 15.4712ZM6.35532 41.7681C7.85579 53.6945 17.2453 63.084 29.1717 64.5845C31.1378 64.832 31.5385 61.7537 29.543 61.5062C19.0397 60.1914 10.7484 51.9002 9.4336 41.3969C9.1861 39.4169 6.10782 39.8036 6.35532 41.7681Z" fill="url(#paint0_linear)"/>
<path d="M61.9361 13.4415L41.4245 33.9531H37.0469V29.5754L57.5584 9.06387C59.1362 10.4097 60.5903 11.8637 61.9361 13.4415Z" fill="url(#paint1_linear)"/>
<path d="M55.1144 7.14574L37.0469 25.1978V16.4579L49.6539 3.85089C51.5566 4.79449 53.3819 5.89277 55.1144 7.14574Z" fill="url(#paint2_linear)"/>
<path d="M70.9234 33.9531H58.9197L68.4948 24.3779C69.7169 27.4562 70.5212 30.6737 70.9234 33.9531Z" fill="url(#paint3_linear)"/>
<path d="M46.622 2.50513L37.0469 12.0803V0.0765381C40.3262 0.478726 43.5437 1.2831 46.622 2.50513Z" fill="url(#paint4_linear)"/>
<path d="M67.149 21.3461L54.542 33.9531H45.8022L63.8542 15.8856C65.1072 17.6181 66.2054 19.4434 67.149 21.3461Z" fill="url(#paint5_linear)"/>
<defs>
<linearGradient id="paint0_linear" x1="4.46976" y1="57.7607" x2="100.918" y2="-8.73251" gradientUnits="userSpaceOnUse">
<stop stop-color="#9D9792"/>
<stop offset="0.08" stop-color="#CECAC5"/>
<stop offset="0.14" stop-color="#ECE8E3"/>
<stop offset="0.26" stop-color="#EDEAE7"/>
<stop offset="0.36" stop-color="#ECE8E3"/>
<stop offset="0.49" stop-color="#9D9792"/>
<stop offset="0.56" stop-color="#CECAC5"/>
<stop offset="0.61" stop-color="#ECE8E3"/>
<stop offset="0.72" stop-color="#EDEAE7"/>
<stop offset="0.84" stop-color="#ECE8E3"/>
<stop offset="1" stop-color="#9D9792"/>
</linearGradient>
<linearGradient id="paint1_linear" x1="38.76" y1="28.9054" x2="75.7294" y2="3.42215" gradientUnits="userSpaceOnUse">
<stop stop-color="#9D9792"/>
<stop offset="0.08" stop-color="#CECAC5"/>
<stop offset="0.14" stop-color="#ECE8E3"/>
<stop offset="0.26" stop-color="#EDEAE7"/>
<stop offset="0.36" stop-color="#ECE8E3"/>
<stop offset="0.49" stop-color="#9D9792"/>
<stop offset="0.56" stop-color="#CECAC5"/>
<stop offset="0.61" stop-color="#ECE8E3"/>
<stop offset="0.72" stop-color="#EDEAE7"/>
<stop offset="0.84" stop-color="#ECE8E3"/>
<stop offset="1" stop-color="#9D9792"/>
</linearGradient>
<linearGradient id="paint2_linear" x1="38.2905" y1="20.8685" x2="67.8256" y2="3.63732" gradientUnits="userSpaceOnUse">
<stop stop-color="#9D9792"/>
<stop offset="0.08" stop-color="#CECAC5"/>
<stop offset="0.14" stop-color="#ECE8E3"/>
<stop offset="0.26" stop-color="#EDEAE7"/>
<stop offset="0.36" stop-color="#ECE8E3"/>
<stop offset="0.49" stop-color="#9D9792"/>
<stop offset="0.56" stop-color="#CECAC5"/>
<stop offset="0.61" stop-color="#ECE8E3"/>
<stop offset="0.72" stop-color="#EDEAE7"/>
<stop offset="0.84" stop-color="#ECE8E3"/>
<stop offset="1" stop-color="#9D9792"/>
</linearGradient>
<linearGradient id="paint3_linear" x1="59.7459" y1="32.0112" x2="74.8035" y2="18.9993" gradientUnits="userSpaceOnUse">
<stop stop-color="#9D9792"/>
<stop offset="0.08" stop-color="#CECAC5"/>
<stop offset="0.14" stop-color="#ECE8E3"/>
<stop offset="0.26" stop-color="#EDEAE7"/>
<stop offset="0.36" stop-color="#ECE8E3"/>
<stop offset="0.49" stop-color="#9D9792"/>
<stop offset="0.56" stop-color="#CECAC5"/>
<stop offset="0.61" stop-color="#ECE8E3"/>
<stop offset="0.72" stop-color="#EDEAE7"/>
<stop offset="0.84" stop-color="#ECE8E3"/>
<stop offset="1" stop-color="#9D9792"/>
</linearGradient>
<linearGradient id="paint4_linear" x1="37.7059" y1="9.64585" x2="53.8157" y2="0.787945" gradientUnits="userSpaceOnUse">
<stop stop-color="#9D9792"/>
<stop offset="0.08" stop-color="#CECAC5"/>
<stop offset="0.14" stop-color="#ECE8E3"/>
<stop offset="0.26" stop-color="#EDEAE7"/>
<stop offset="0.36" stop-color="#ECE8E3"/>
<stop offset="0.49" stop-color="#9D9792"/>
<stop offset="0.56" stop-color="#CECAC5"/>
<stop offset="0.61" stop-color="#ECE8E3"/>
<stop offset="0.72" stop-color="#EDEAE7"/>
<stop offset="0.84" stop-color="#ECE8E3"/>
<stop offset="1" stop-color="#9D9792"/>
</linearGradient>
<linearGradient id="paint5_linear" x1="47.2715" y1="30.2889" x2="75.3927" y2="7.38639" gradientUnits="userSpaceOnUse">
<stop stop-color="#9D9792"/>
<stop offset="0.08" stop-color="#CECAC5"/>
<stop offset="0.14" stop-color="#ECE8E3"/>
<stop offset="0.26" stop-color="#EDEAE7"/>
<stop offset="0.36" stop-color="#ECE8E3"/>
<stop offset="0.49" stop-color="#9D9792"/>
<stop offset="0.56" stop-color="#CECAC5"/>
<stop offset="0.61" stop-color="#ECE8E3"/>
<stop offset="0.72" stop-color="#EDEAE7"/>
<stop offset="0.84" stop-color="#ECE8E3"/>
<stop offset="1" stop-color="#9D9792"/>
</linearGradient>
</defs>
</svg>
