<svg width="68" height="68" viewBox="0 0 68 68" fill="none" xmlns="http://www.w3.org/2000/svg">
<path d="M59.6361 11.6791C59.4298 11.4421 59.1339 11.3015 58.82 11.2914C58.5073 11.2631 58.2024 11.4013 57.9791 11.6224L53.1603 16.4423C52.7443 16.8583 52.7159 17.5225 53.0934 17.9735C56.8596 22.4535 58.9322 28.1463 58.9322 34.001C58.9322 39.8557 56.8581 45.5473 53.0934 50.0285C52.7159 50.4783 52.7443 51.1425 53.1603 51.5597L57.9791 56.3796C58.1923 56.5928 58.4801 56.7117 58.7815 56.7117C58.794 56.7117 58.8076 56.7117 58.82 56.7106C59.1339 56.7004 59.4298 56.5599 59.6361 56.3229C65.0297 50.1327 68 42.2061 68 34.0019C68 25.7976 65.0308 17.8693 59.6361 11.6791Z" fill="url(#paint0_linear)"/>
<path d="M14.9068 50.0276C11.1407 45.5476 9.06803 39.8549 9.06803 34.0001C9.06803 28.1454 11.1422 22.4538 14.9068 17.9726C15.2844 17.5228 15.256 16.8586 14.84 16.4415L10.0209 11.6212C9.79875 11.4002 9.49154 11.2709 9.17998 11.2903C8.86612 11.3004 8.57018 11.441 8.36393 11.6779C2.97061 17.8682 -3.8147e-06 25.7947 -3.8147e-06 33.999C-3.8147e-06 42.2032 2.97061 50.1298 8.36393 56.32C8.57018 56.557 8.86612 56.6976 9.17998 56.7077C9.19242 56.7088 9.20602 56.7088 9.21846 56.7088C9.51873 56.7088 9.80656 56.5899 10.0209 56.3767L14.84 51.5565C15.2557 51.1417 15.2852 50.4775 14.9068 50.0276Z" fill="url(#paint1_linear)"/>
<path d="M16.4423 14.84C16.8583 15.2549 17.5237 15.2855 17.9735 14.9068C22.4547 11.1419 28.1463 9.06804 34.001 9.06804C39.8557 9.06804 45.5473 11.1422 50.0285 14.9068C50.2406 15.0848 50.5001 15.1721 50.7572 15.1721C51.0485 15.1721 51.3387 15.0599 51.5597 14.84L56.3785 10.0201C56.5995 9.79789 56.7207 9.49299 56.7094 9.18028C56.6982 8.86641 56.5576 8.57048 56.3206 8.36422C50.133 2.97061 42.2064 0 34.0025 0C25.7985 0 17.8717 2.97061 11.6825 8.36393C11.4456 8.57019 11.305 8.86496 11.2937 9.17999C11.2825 9.4927 11.4037 9.7976 11.6247 10.0198L16.4423 14.84Z" fill="url(#paint2_linear)"/>
<path d="M51.5588 53.1603C51.1428 52.7443 50.4775 52.7136 50.0277 53.0934C45.5464 56.8584 39.8549 58.9322 34.0001 58.9322C28.1454 58.9322 22.4539 56.8581 17.9726 53.0934C17.5228 52.7139 16.8575 52.7443 16.4415 53.1603L11.6224 57.9802C11.4014 58.2024 11.2802 58.5073 11.2914 58.82C11.3027 59.1339 11.4433 59.4298 11.6802 59.6361C17.8682 65.0297 25.7959 68 33.999 68C42.2021 68 50.1298 65.0294 56.3189 59.6361C56.5558 59.4298 56.6964 59.135 56.7077 58.82C56.719 58.5073 56.5978 58.2024 56.3768 57.9802L51.5588 53.1603Z" fill="url(#paint3_linear)"/>
<path d="M34.9611 15.265C34.7537 14.9364 34.3921 14.7368 34.0033 14.7356C33.6111 14.7457 33.2486 14.934 33.04 15.2638C32.878 15.5198 28.9542 21.5334 19.2666 21.5334C18.9651 21.5334 18.6762 21.6523 18.4641 21.8666C18.2509 22.0798 18.1332 22.3697 18.1332 22.6714L18.1751 33.7939C18.1751 39.4843 20.0407 44.8449 23.427 48.8841C26.4939 52.5438 30.0512 54.399 33.9999 54.399C37.9485 54.399 41.5061 52.5426 44.5727 48.8841C47.959 44.8449 49.8246 39.4843 49.8246 33.7971L49.8665 22.6699C49.8677 22.3685 49.7488 22.0795 49.5356 21.8652C49.3224 21.652 49.0334 21.5319 48.7331 21.5319C39.0617 21.5334 35.1344 15.5381 34.9611 15.265ZM41.7577 30.0752C41.64 30.2601 41.5231 30.4446 41.4054 30.6283C39.2543 34.008 37.1044 37.3876 34.9533 40.7673C34.6666 41.2182 34.38 41.6695 34.0918 42.1193C33.8289 42.533 33.5819 42.9478 33.0536 43.0407C32.2162 43.1868 31.766 42.3528 31.3411 41.7861C30.8233 41.0959 30.3052 40.4057 29.7885 39.7166C29.4032 39.202 29.0167 38.6876 28.6303 38.1718C28.6065 38.1412 28.5837 38.1096 28.56 38.079C28.1836 37.5791 28.2857 36.8686 28.7868 36.4934C29.2878 36.1194 29.9983 36.2192 30.3735 36.7202L32.7898 39.9422L39.8436 28.857C40.1792 28.33 40.8795 28.1746 41.4086 28.509C41.938 28.8469 42.0933 29.5473 41.7577 30.0752Z" fill="url(#paint4_linear)"/>
<defs>
<linearGradient id="paint0_linear" x1="53.8725" y1="47.4994" x2="85.4422" y2="40.2311" gradientUnits="userSpaceOnUse">
<stop stop-color="#9D9792"/>
<stop offset="0.08" stop-color="#CECAC5"/>
<stop offset="0.14" stop-color="#ECE8E3"/>
<stop offset="0.26" stop-color="#EDEAE7"/>
<stop offset="0.36" stop-color="#ECE8E3"/>
<stop offset="0.49" stop-color="#9D9792"/>
<stop offset="0.56" stop-color="#CECAC5"/>
<stop offset="0.61" stop-color="#ECE8E3"/>
<stop offset="0.72" stop-color="#EDEAE7"/>
<stop offset="0.84" stop-color="#ECE8E3"/>
<stop offset="1" stop-color="#9D9792"/>
</linearGradient>
<linearGradient id="paint1_linear" x1="1.0443" y1="47.4973" x2="32.6148" y2="40.2279" gradientUnits="userSpaceOnUse">
<stop stop-color="#9D9792"/>
<stop offset="0.08" stop-color="#CECAC5"/>
<stop offset="0.14" stop-color="#ECE8E3"/>
<stop offset="0.26" stop-color="#EDEAE7"/>
<stop offset="0.36" stop-color="#ECE8E3"/>
<stop offset="0.49" stop-color="#9D9792"/>
<stop offset="0.56" stop-color="#CECAC5"/>
<stop offset="0.61" stop-color="#ECE8E3"/>
<stop offset="0.72" stop-color="#EDEAE7"/>
<stop offset="0.84" stop-color="#ECE8E3"/>
<stop offset="1" stop-color="#9D9792"/>
</linearGradient>
<linearGradient id="paint2_linear" x1="14.4191" y1="12.0951" x2="33.3465" y2="-26.96" gradientUnits="userSpaceOnUse">
<stop stop-color="#9D9792"/>
<stop offset="0.08" stop-color="#CECAC5"/>
<stop offset="0.14" stop-color="#ECE8E3"/>
<stop offset="0.26" stop-color="#EDEAE7"/>
<stop offset="0.36" stop-color="#ECE8E3"/>
<stop offset="0.49" stop-color="#9D9792"/>
<stop offset="0.56" stop-color="#CECAC5"/>
<stop offset="0.61" stop-color="#ECE8E3"/>
<stop offset="0.72" stop-color="#EDEAE7"/>
<stop offset="0.84" stop-color="#ECE8E3"/>
<stop offset="1" stop-color="#9D9792"/>
</linearGradient>
<linearGradient id="paint3_linear" x1="14.4168" y1="64.9229" x2="33.3453" y2="25.8666" gradientUnits="userSpaceOnUse">
<stop stop-color="#9D9792"/>
<stop offset="0.08" stop-color="#CECAC5"/>
<stop offset="0.14" stop-color="#ECE8E3"/>
<stop offset="0.26" stop-color="#EDEAE7"/>
<stop offset="0.36" stop-color="#ECE8E3"/>
<stop offset="0.49" stop-color="#9D9792"/>
<stop offset="0.56" stop-color="#CECAC5"/>
<stop offset="0.61" stop-color="#ECE8E3"/>
<stop offset="0.72" stop-color="#EDEAE7"/>
<stop offset="0.84" stop-color="#ECE8E3"/>
<stop offset="1" stop-color="#9D9792"/>
</linearGradient>
<linearGradient id="paint4_linear" x1="20.3174" y1="46.355" x2="73.6333" y2="16.9517" gradientUnits="userSpaceOnUse">
<stop stop-color="#9D9792"/>
<stop offset="0.08" stop-color="#CECAC5"/>
<stop offset="0.14" stop-color="#ECE8E3"/>
<stop offset="0.26" stop-color="#EDEAE7"/>
<stop offset="0.36" stop-color="#ECE8E3"/>
<stop offset="0.49" stop-color="#9D9792"/>
<stop offset="0.56" stop-color="#CECAC5"/>
<stop offset="0.61" stop-color="#ECE8E3"/>
<stop offset="0.72" stop-color="#EDEAE7"/>
<stop offset="0.84" stop-color="#ECE8E3"/>
<stop offset="1" stop-color="#9D9792"/>
</linearGradient>
</defs>
</svg>
