<svg width="20" height="21" viewBox="0 0 20 21" fill="none" xmlns="http://www.w3.org/2000/svg">
<path d="M4.19553 14.2569L9.43 15.8086L5.46903 19.5659L4.19553 14.2569Z" fill="#7D3DAF"/>
<path d="M1.46356 8.68628C1.46356 13.1643 5.09368 16.7944 9.57165 16.7944C14.0496 16.7944 17.6797 13.1643 17.6797 8.68628C17.6797 4.2083 14.0496 0.578186 9.57165 0.578186C5.09368 0.578186 1.46356 4.2083 1.46356 8.68628Z" fill="#7D3DAF"/>
<path d="M18.7605 4.76851L18.7548 4.74562C18.2919 2.87408 16.2047 0.865817 14.288 0.448012L14.2664 0.44356C11.1663 -0.147853 8.02288 -0.147853 4.92336 0.44356L4.9011 0.448012C2.98505 0.865817 0.897931 2.87408 0.434339 4.74562L0.429252 4.76851C-0.143084 7.38218 -0.143084 10.0327 0.429252 12.6464L0.434339 12.6693C0.878154 14.461 2.80985 16.3769 4.655 16.9039V18.993C4.655 19.7491 5.57646 20.1205 6.10046 19.5749L8.21715 17.3747C8.67623 17.4003 9.13556 17.4147 9.59489 17.4147C11.1555 17.4147 12.7167 17.2671 14.2664 16.9714L14.288 16.967C16.2047 16.5492 18.2919 14.5409 18.7548 12.6694L18.7605 12.6465C19.3329 10.0327 19.3329 7.38218 18.7605 4.76851ZM17.0855 12.2674C16.7764 13.4884 15.1917 15.0063 13.9326 15.2868C12.2842 15.6002 10.6227 15.7342 8.96297 15.6882C8.92996 15.6873 8.89823 15.7001 8.87521 15.7238C8.63966 15.9656 7.32971 17.3103 7.32971 17.3103L5.68584 18.9974C5.56565 19.1227 5.35452 19.0375 5.35452 18.8645V15.4037C5.35452 15.3465 5.31369 15.2979 5.25754 15.2869C5.25722 15.2868 5.2569 15.2868 5.25659 15.2867C3.99745 15.0063 2.41335 13.4883 2.10365 12.2673C1.58855 9.90484 1.58855 7.50994 2.10365 5.14746C2.41335 3.92648 3.99745 2.40852 5.25659 2.12807C8.13544 1.58054 11.0543 1.58054 13.9326 2.12807C15.1923 2.40852 16.7764 3.92648 17.0855 5.14746C17.6012 7.51 17.6012 9.90491 17.0855 12.2674Z" fill="white"/>
<path d="M12.334 13.8647C12.1405 13.8059 11.956 13.7664 11.7847 13.6953C10.0094 12.9588 8.37558 12.0086 7.0814 10.552C6.34544 9.7237 5.76942 8.78856 5.28249 7.79893C5.05158 7.32961 4.85699 6.84192 4.65864 6.35741C4.47778 5.91556 4.74417 5.45909 5.02468 5.12619C5.28789 4.81375 5.62659 4.57465 5.99339 4.39843C6.27969 4.26088 6.5621 4.34018 6.7712 4.58285C7.22321 5.10749 7.63841 5.65897 7.97463 6.26711C8.18137 6.64116 8.12464 7.09839 7.74995 7.35295C7.65889 7.41483 7.5759 7.48745 7.49107 7.55734C7.41666 7.61858 7.34665 7.68046 7.29564 7.76338C7.20242 7.91511 7.19797 8.09406 7.258 8.25902C7.72006 9.52885 8.49889 10.5163 9.77698 11.0481C9.98149 11.1332 10.1869 11.2322 10.4225 11.2048C10.8171 11.1587 10.9449 10.7259 11.2214 10.4997C11.4916 10.2787 11.837 10.2758 12.1281 10.46C12.4193 10.6443 12.7016 10.8422 12.9822 11.0421C13.2576 11.2383 13.5318 11.4303 13.7859 11.6541C14.0301 11.8692 14.1143 12.1514 13.9767 12.4434C13.7249 12.9781 13.3585 13.4229 12.8299 13.7068C12.6806 13.7869 12.5024 13.8128 12.334 13.8647C12.1405 13.8058 12.5024 13.8128 12.334 13.8647Z" fill="white"/>
<path d="M9.5998 3.7871C11.9219 3.85215 13.8291 5.3932 14.2378 7.6889C14.3075 8.08006 14.3323 8.48 14.3632 8.87701C14.3763 9.044 14.2817 9.20267 14.1015 9.20483C13.9153 9.20706 13.8316 9.05132 13.8195 8.88439C13.7956 8.55396 13.779 8.22207 13.7335 7.89437C13.4931 6.16458 12.1138 4.73349 10.392 4.4264C10.1329 4.38017 9.86771 4.36802 9.60527 4.34048C9.43935 4.32306 9.22206 4.31301 9.1853 4.10678C9.15446 3.93387 9.3004 3.79619 9.46504 3.78735C9.50981 3.78487 9.55484 3.78691 9.5998 3.7871C11.9219 3.85215 9.55484 3.78691 9.5998 3.7871Z" fill="white"/>
<path d="M13.1287 8.36141C13.1249 8.39041 13.1229 8.45859 13.1059 8.52281C13.0443 8.75595 12.6908 8.78513 12.6094 8.54984C12.5853 8.48002 12.5817 8.40059 12.5816 8.32542C12.5807 7.83359 12.4738 7.34228 12.2258 6.91436C11.9709 6.47455 11.5814 6.10482 11.1245 5.8811C10.8483 5.74584 10.5495 5.66177 10.2468 5.61166C10.1144 5.58978 9.98069 5.57649 9.84772 5.55799C9.68657 5.5356 9.60053 5.4329 9.60816 5.27411C9.61529 5.1253 9.72403 5.01827 9.88619 5.02743C10.4191 5.0577 10.9338 5.17287 11.4076 5.42374C12.371 5.93395 12.9214 6.73929 13.082 7.81464C13.0892 7.86336 13.1009 7.91162 13.1046 7.96053C13.1137 8.08129 13.1194 8.20218 13.1287 8.36141C13.1249 8.39041 13.1194 8.20218 13.1287 8.36141Z" fill="white"/>
<path d="M11.6842 8.30615C11.4899 8.30965 11.386 8.20211 11.3659 8.02399C11.352 7.89979 11.341 7.77394 11.3114 7.65311C11.253 7.41515 11.1265 7.19461 10.9263 7.04879C10.8318 6.97992 10.7247 6.92975 10.6126 6.89738C10.47 6.85623 10.3221 6.86755 10.1799 6.8327C10.0255 6.79487 9.94007 6.66984 9.96436 6.52498C9.98642 6.39315 10.1147 6.29026 10.2587 6.30069C11.159 6.36568 11.8024 6.83111 11.8943 7.89095C11.9008 7.96574 11.9084 8.04478 11.8918 8.11633C11.8634 8.2388 11.7727 8.30017 11.6842 8.30615C11.4899 8.30965 11.7727 8.30017 11.6842 8.30615Z" fill="white"/>
</svg>
