<svg width="34" height="34" viewBox="0 0 34 34" fill="none" xmlns="http://www.w3.org/2000/svg">
<path d="M17 0.679688C7.9866 0.679688 0.679999 7.98629 0.679999 16.9997C0.679999 26.0131 7.9866 33.3197 17 33.3197C26.0134 33.3197 33.32 26.0131 33.32 16.9997C33.32 7.98629 26.0134 0.679688 17 0.679688ZM23.2764 19.0924C23.2764 19.0924 24.7197 20.517 25.075 21.1783C25.0852 21.1919 25.0903 21.2055 25.0937 21.2123C25.2382 21.4554 25.2722 21.6441 25.2008 21.7852C25.0818 22.0198 24.6738 22.1354 24.5344 22.1456H21.9844C21.8076 22.1456 21.437 22.0997 20.9882 21.7903C20.6431 21.5489 20.3031 21.1528 19.9716 20.7669C19.4769 20.1923 19.0485 19.6959 18.6167 19.6959C18.5619 19.6958 18.5073 19.7044 18.4552 19.7214C18.1288 19.8268 17.7106 20.2926 17.7106 21.5336C17.7106 21.9212 17.4046 22.1439 17.1887 22.1439H16.0208C15.623 22.1439 13.5507 22.0045 11.7147 20.0682C9.4673 17.6967 7.4443 12.9401 7.4273 12.8959C7.2998 12.5882 7.5633 12.4233 7.8506 12.4233H10.4261C10.7695 12.4233 10.8817 12.6324 10.9599 12.8177C11.0517 13.0336 11.3883 13.8921 11.9408 14.8577C12.8367 16.4319 13.3858 17.0711 13.8261 17.0711C13.9087 17.0701 13.9897 17.0491 14.0624 17.0099C14.637 16.6903 14.5299 14.6418 14.5044 14.2168C14.5044 14.1369 14.5027 13.3005 14.2086 12.8993C13.9978 12.6086 13.6391 12.4981 13.4215 12.4573C13.5096 12.3358 13.6256 12.2372 13.7598 12.17C14.1542 11.9728 14.8648 11.9439 15.5703 11.9439H15.963C16.728 11.9541 16.9252 12.0034 17.2023 12.0731C17.7633 12.2074 17.7752 12.5695 17.7259 13.8088C17.7106 14.1607 17.6953 14.5585 17.6953 15.0277C17.6953 15.1297 17.6902 15.2385 17.6902 15.3541C17.6732 15.9848 17.6528 16.7005 18.0982 16.9946C18.1563 17.031 18.2234 17.0504 18.292 17.0507C18.4467 17.0507 18.9125 17.0507 20.1739 14.8866C20.5629 14.19 20.901 13.4662 21.1854 12.7208C21.2109 12.6766 21.2857 12.5406 21.3741 12.4879C21.4393 12.4546 21.5117 12.4377 21.5849 12.4386H24.6126C24.9424 12.4386 25.1685 12.4879 25.211 12.6154C25.2858 12.8177 25.1974 13.4348 23.8153 15.3065L23.1982 16.1208C21.9453 17.763 21.9453 17.8463 23.2764 19.0924Z" fill="url(#paint0_linear)"/>
<defs>
<linearGradient id="paint0_linear" x1="2.9266" y1="26.7001" x2="51.4087" y2="-6.71896" gradientUnits="userSpaceOnUse">
<stop stop-color="#9D9792"/>
<stop offset="0.08" stop-color="#CECAC5"/>
<stop offset="0.14" stop-color="#ECE8E3"/>
<stop offset="0.26" stop-color="#EDEAE7"/>
<stop offset="0.36" stop-color="#ECE8E3"/>
<stop offset="0.49" stop-color="#9D9792"/>
<stop offset="0.56" stop-color="#CECAC5"/>
<stop offset="0.61" stop-color="#ECE8E3"/>
<stop offset="0.72" stop-color="#EDEAE7"/>
<stop offset="0.84" stop-color="#ECE8E3"/>
<stop offset="1" stop-color="#9D9792"/>
</linearGradient>
</defs>
</svg>
