<svg width="80" height="80" viewBox="0 0 80 80" fill="none" xmlns="http://www.w3.org/2000/svg">
<path d="M35.769 27.9091L33.2691 28.9507L34.2306 31.2584L36.7305 30.2168L35.769 27.9091Z" fill="#ADA8A3"/>
<path d="M30.7692 29.9919L19.5192 34.6794L20.4807 36.9871L31.7307 32.2996L30.7692 29.9919Z" fill="#ADA8A3"/>
<path d="M76.098 69.3303L69.9495 63.1817C71.1926 61.0494 72.0022 58.6926 72.3319 56.2466C72.6617 53.8005 72.505 51.3135 71.871 48.9281C71.2369 46.5428 70.138 44.3062 68.6373 42.3467C67.1365 40.3873 65.2635 38.7435 63.1258 37.5098L61.875 39.6739C64.2537 41.0469 66.2456 43.0003 67.6647 45.3518C69.0838 47.7033 69.8838 50.376 69.99 53.1204C70.0963 55.8649 69.5052 58.5915 68.2721 61.0456C67.039 63.4997 65.204 65.6012 62.9386 67.154C60.6732 68.7067 58.0512 69.66 55.3175 69.9248C52.5838 70.1896 49.8276 69.7573 47.3063 68.6682C44.7849 67.5791 42.5807 65.8688 40.8995 63.697C39.2183 61.5252 38.115 58.9627 37.6925 56.2489C37.6894 56.2286 37.6858 56.2084 37.6817 56.1886C37.5612 55.3814 37.5005 54.5663 37.5 53.7501C37.5055 50.8983 38.2588 48.0977 39.6847 45.6279C41.1105 43.158 43.1591 41.1052 45.6261 39.6744C47.0704 38.8378 48.636 38.2306 50.2667 37.8745L49.7333 35.432C48.5378 35.6934 47.3711 36.0721 46.25 36.5626V35.0001H43.75V37.8894C41.0749 39.5835 38.8705 41.9252 37.341 44.6977C35.8115 47.4702 35.0063 50.5838 35 53.7501C35 53.9948 35.0048 54.2396 35.0145 54.4845L16.25 46.6669V33.3334L35.4808 25.3211L34.5192 23.0134L14.75 31.2501H3.75C3.41848 31.2501 3.10054 31.3818 2.86612 31.6163C2.6317 31.8507 2.5 32.1686 2.5 32.5001V47.5001C2.5 47.8317 2.6317 48.1496 2.86612 48.384C3.10054 48.6185 3.41848 48.7501 3.75 48.7501H6.4275L8.76453 63.9401C8.80992 64.2353 8.95945 64.5044 9.18606 64.6988C9.41268 64.8933 9.70141 65.0001 10 65.0001H17.5C17.6802 65.0001 17.8583 64.9612 18.022 64.8859C18.1858 64.8106 18.3313 64.7009 18.4487 64.5641C18.566 64.4273 18.6524 64.2668 18.7019 64.0935C18.7514 63.9202 18.7629 63.7383 18.7355 63.5601L16.5739 49.5101L35.3438 57.3306C35.9141 60.2681 37.1796 63.0263 39.0342 65.3745C40.8889 67.7228 43.2789 69.5928 46.0043 70.8282C48.7296 72.0637 51.7112 72.6286 54.6997 72.4757C57.6881 72.3228 60.5965 71.4566 63.1816 69.9495L69.33 76.0981C69.7736 76.5461 70.3013 76.9021 70.8829 77.1455C71.4644 77.3889 72.0884 77.515 72.7188 77.5166C73.3493 77.5182 73.9738 77.3951 74.5566 77.1546C75.1394 76.9141 75.6688 76.5607 76.1146 76.1149C76.5604 75.6691 76.9138 75.1397 77.1543 74.5569C77.3948 73.9741 77.5179 73.3496 77.5163 72.7191C77.5147 72.0887 77.3886 71.4647 77.1452 70.8832C76.9018 70.3016 76.5458 69.7739 76.0978 69.3303H76.098ZM5 33.7501H13.75V46.2501H5V33.7501ZM11.0723 62.5001L8.95703 48.7501H13.9277L16.043 62.5001H11.0723ZM74.3291 74.3314C74.1169 74.5435 73.8649 74.7118 73.5877 74.8265C73.3105 74.9413 73.0133 75.0003 72.7133 75.0002C72.4132 75.0001 72.1162 74.9409 71.839 74.8259C71.5618 74.711 71.31 74.5426 71.098 74.3303L65.2877 68.52C66.4918 67.5772 67.5771 66.4919 68.5198 65.2878L74.3302 71.0981C74.5428 71.3101 74.7115 71.5619 74.8264 71.8393C74.9414 72.1166 75.0004 72.414 75 72.7142C75.0009 73.0148 74.9421 73.3125 74.8269 73.5902C74.7117 73.8678 74.5425 74.1198 74.3291 74.3314Z" fill="#ADA8A3"/>
<path d="M49.625 40.6296C46.5513 41.5959 43.9146 43.6109 42.175 46.3229C40.4354 49.0349 39.7034 52.2717 40.1068 55.4683C40.5102 58.6649 42.0234 61.6184 44.3822 63.8132C46.741 66.008 49.7957 67.3047 53.0131 67.4771C56.2304 67.6494 59.4062 66.6864 61.986 64.7562C64.5658 62.826 66.3858 60.0511 67.1284 56.9159C67.871 53.7806 67.489 50.4842 66.0491 47.6019C64.6092 44.7195 62.2029 42.4344 59.25 41.1453L58.25 43.4356C60.6661 44.49 62.6353 46.3594 63.8137 48.7175C64.9921 51.0756 65.305 53.7726 64.6978 56.3379C64.0906 58.9032 62.6018 61.1738 60.4912 62.7533C58.3807 64.3329 55.7825 65.1211 53.1501 64.9805C50.5177 64.8398 48.0182 63.7792 46.088 61.9837C44.1578 60.1883 42.9195 57.772 42.5891 55.1566C42.2586 52.5412 42.8572 49.8928 44.2802 47.6737C45.7032 45.4546 47.8603 43.8057 50.375 43.0148L49.625 40.6296Z" fill="#ADA8A3"/>
<path d="M53.75 45C52.7565 44.9989 51.7702 45.1674 50.8334 45.4983L51.6666 47.8553C52.3358 47.6192 53.0404 47.499 53.75 47.5V45Z" fill="#ADA8A3"/>
<path d="M49.5836 49.0911L47.9164 47.2283C46.9989 48.049 46.2648 49.0541 45.7622 50.1779C45.2597 51.3017 44.9999 52.5189 44.9999 53.75C44.9999 54.9811 45.2597 56.1983 45.7622 57.3221C46.2648 58.4459 46.9989 59.451 47.9164 60.2717L49.5836 58.4089C48.928 57.8227 48.4036 57.1047 48.0445 56.3018C47.6854 55.499 47.4998 54.6295 47.4998 53.75C47.4998 52.8705 47.6854 52.001 48.0445 51.1981C48.4036 50.3953 48.928 49.6773 49.5836 49.0911Z" fill="#ADA8A3"/>
<path d="M71.25 2.5H43.75C42.093 2.50186 40.5043 3.16094 39.3326 4.33264C38.1609 5.50434 37.5019 7.09297 37.5 8.75V26.25C37.5019 27.907 38.1609 29.4957 39.3326 30.6674C40.5043 31.8391 42.093 32.4981 43.75 32.5H52.5V42.5C52.5 42.7535 52.5771 43.001 52.721 43.2096C52.8649 43.4183 53.0688 43.5783 53.3058 43.6684C53.5427 43.7584 53.8014 43.7744 54.0476 43.714C54.2938 43.6537 54.5158 43.5199 54.6842 43.3305L64.3114 32.5H71.25C72.907 32.4981 74.4957 31.8391 75.6674 30.6674C76.8391 29.4957 77.4981 27.907 77.5 26.25V8.75C77.4981 7.09297 76.8391 5.50434 75.6674 4.33264C74.4957 3.16094 72.907 2.50186 71.25 2.5ZM75 26.25C74.9989 27.2442 74.6034 28.1974 73.9004 28.9004C73.1974 29.6034 72.2442 29.9989 71.25 30H63.75C63.5735 30 63.399 30.0374 63.238 30.1097C63.0769 30.182 62.9331 30.2876 62.8158 30.4195L55 39.2122V31.25C55 30.9185 54.8683 30.6005 54.6339 30.3661C54.3995 30.1317 54.0815 30 53.75 30H43.75C42.7558 29.9989 41.8026 29.6034 41.0996 28.9004C40.3966 28.1974 40.0011 27.2442 40 26.25V8.75C40.0011 7.75578 40.3966 6.8026 41.0996 6.09958C41.8026 5.39656 42.7558 5.00112 43.75 5H71.25C72.2442 5.00112 73.1974 5.39656 73.9004 6.09958C74.6034 6.8026 74.9989 7.75578 75 8.75V26.25Z" fill="#ADA8A3"/>
<path d="M70 7.5H65C64.6685 7.5 64.3505 7.6317 64.1161 7.86612C63.8817 8.10054 63.75 8.41848 63.75 8.75V23.75H61.25V13.75C61.25 13.4185 61.1183 13.1005 60.8839 12.8661C60.6495 12.6317 60.3315 12.5 60 12.5H55C54.6685 12.5 54.3505 12.6317 54.1161 12.8661C53.8817 13.1005 53.75 13.4185 53.75 13.75V23.75H51.25V18.75C51.25 18.4185 51.1183 18.1005 50.8839 17.8661C50.6495 17.6317 50.3315 17.5 50 17.5H45C44.6685 17.5 44.3505 17.6317 44.1161 17.8661C43.8817 18.1005 43.75 18.4185 43.75 18.75V25C43.75 25.3315 43.8817 25.6495 44.1161 25.8839C44.3505 26.1183 44.6685 26.25 45 26.25H70C70.3315 26.25 70.6495 26.1183 70.8839 25.8839C71.1183 25.6495 71.25 25.3315 71.25 25V8.75C71.25 8.41848 71.1183 8.10054 70.8839 7.86612C70.6495 7.6317 70.3315 7.5 70 7.5ZM46.25 23.75V20H48.75V23.75H46.25ZM56.25 23.75V15H58.75V23.75H56.25ZM66.25 23.75V10H68.75V23.75H66.25Z" fill="#ADA8A3"/>
</svg>
