<svg width="66" height="66" viewBox="0 0 66 66" fill="none" xmlns="http://www.w3.org/2000/svg">
<path d="M46.6266 40.4953C47.8219 41.8313 47.8219 43.8563 46.6266 45.1922C39.2719 53.4469 25.8703 53.1375 18.9235 44.5453C18.2063 43.2516 18.361 41.6344 19.3735 40.4953C21.4125 38.2172 23.986 36.5016 26.8547 35.475C30.4125 38.4295 35.5875 38.4295 39.1453 35.475C42.0141 36.5016 44.5875 38.2172 46.6266 40.4953Z" fill="url(#paint0_linear)"/>
<path d="M33 21.2859C36.6984 21.2859 39.7922 24.3797 39.7922 28.0781C39.7922 31.7766 36.6984 34.8703 33 34.8703C29.3016 34.8703 26.2078 31.7766 26.2078 28.0781C26.2078 24.3797 29.3016 21.2859 33 21.2859Z" fill="url(#paint1_linear)"/>
<path d="M17.2781 38.625C16.8422 39.1031 16.4906 39.6516 16.2234 40.2422C13.3969 33.675 14.7328 25.8281 19.5844 20.5828C23.4094 16.4499 29.0625 14.2842 34.6734 14.7891C46.8656 15.9 54.6422 29.0203 49.7766 40.2563C49.5094 39.6656 49.1578 39.1158 48.7219 38.625C46.6266 36.2766 44.025 34.4344 41.1141 33.225C44.8969 27.2484 40.8891 19.1063 33.8297 18.5016C26.0953 17.8392 20.6953 26.6156 24.8859 33.225C21.975 34.4344 19.3734 36.2766 17.2781 38.625Z" fill="url(#paint2_linear)"/>
<path d="M7.25156 16.2516C6.3375 17.0531 6.85781 18.6281 8.08125 18.7125L16.9406 19.3312C10.9219 26.3766 10.2328 36.5156 15.2531 44.3062L6.3375 43.6875C5.11406 43.5905 4.36875 45.0797 5.17031 46.0078L6.09844 47.0625L4.56562 48.4125C1.99219 43.6734 0.65625 38.3859 0.65625 33C0.65625 26.0812 2.87812 19.3453 6.98438 13.7906L8.32031 15.3234L7.25156 16.2516Z" fill="url(#paint3_linear)"/>
<path d="M17.5875 4.56562C22.3266 1.99219 27.6141 0.65625 33 0.65625C39.9187 0.65625 46.6547 2.87812 52.2094 6.98438L50.6766 8.32031L49.7484 7.25156C48.9469 6.3375 47.3719 6.85781 47.2875 8.08125L46.6687 16.9406C39.6234 10.95 29.5125 10.2314 21.6937 15.1828L22.3125 6.3375C22.4109 5.11406 20.9203 4.36875 19.9922 5.17031L18.9375 6.09844L17.5875 4.56562Z" fill="url(#paint4_linear)"/>
<path d="M65.3438 33C65.3438 39.9187 63.1219 46.6547 59.0156 52.2094L57.6797 50.6766L58.7485 49.7484C59.6625 48.9469 59.1422 47.3719 57.9188 47.2875L49.0594 46.6687C55.05 39.6234 55.7672 29.5125 50.8172 21.6937L59.6625 22.3125C60.8859 22.4095 61.6313 20.9203 60.8297 19.9922L59.9016 18.9375L61.4344 17.5875C64.0078 22.3266 65.3438 27.6141 65.3438 33Z" fill="url(#paint5_linear)"/>
<path d="M16.2516 58.7484C17.0531 59.6625 18.6281 59.1422 18.7125 57.9187L19.3453 48.9328C26.3203 55.0359 36.4875 55.8094 44.3062 50.8172L43.6875 59.6625C43.5891 60.8859 45.0797 61.6312 46.0078 60.8297L47.0625 59.9016L48.4125 61.4344C43.6734 64.0078 38.3859 65.3437 33 65.3437C26.0812 65.3437 19.3453 63.1219 13.7906 59.0156L15.3234 57.6797L16.2516 58.7484Z" fill="url(#paint6_linear)"/>
<path d="M59.5219 57.075C60 57.6361 60.6188 58.0594 61.3219 58.2984C59.6063 60.2095 57.6938 61.9547 55.6266 63.4861C55.0359 63.9234 54.2203 63.8376 53.7281 63.2765L47.3438 55.9359L46.725 56.4717L47.2172 49.3547L54.3328 49.8609L53.7141 50.3953L59.5219 57.075Z" fill="url(#paint7_linear)"/>
<path d="M60.9 54.389L62.5735 52.0125L63.7688 53.3906C64.9641 54.7547 62.8406 56.6109 61.6453 55.2328L60.9 54.389Z" fill="url(#paint8_linear)"/>
<path d="M9.52968 46.725L16.6453 47.2186L16.1391 54.3342L15.6047 53.7169L8.925 59.5247C8.3625 60.0028 7.94062 60.6202 7.70156 61.3106C5.78906 59.6091 4.04531 57.6966 2.5125 55.6294C2.07656 55.0388 2.16094 54.2231 2.72344 53.731L10.0641 47.3466L9.52968 46.725Z" fill="url(#paint9_linear)"/>
<path d="M12.6094 63.7688C11.2453 64.9655 9.38906 62.8406 10.7672 61.6453L11.6109 60.9L13.9875 62.5735L12.6094 63.7688Z" fill="url(#paint10_linear)"/>
<path d="M12.2859 15.6047L6.47813 8.925C6.00001 8.3639 5.38126 7.94062 4.67813 7.70156C6.39376 5.79046 8.30626 4.04531 10.3734 2.5139C10.9641 2.07656 11.7797 2.16234 12.2719 2.72343L18.6563 10.0655L19.275 9.52968L18.7828 16.6467L11.6672 16.1405L12.2859 15.6047Z" fill="url(#paint11_linear)"/>
<path d="M5.09999 11.6109L3.42656 13.9875L2.23124 12.6094C1.03593 11.2453 3.15937 9.38906 4.35468 10.7672L5.09999 11.6109Z" fill="url(#paint12_linear)"/>
<path d="M53.3906 2.23125C54.7547 1.03453 56.6109 3.15937 55.2328 4.35468L54.389 5.1L52.0125 3.42656L53.3906 2.23125Z" fill="url(#paint13_linear)"/>
<path d="M56.4703 19.275L49.3547 18.7814L49.8609 11.6658L50.3953 12.2831L57.075 6.4753C57.6375 5.99717 58.0594 5.37983 58.2984 4.68936C60.2109 6.39092 61.9547 8.30342 63.4875 10.3706C63.9234 10.9612 63.8391 11.7769 63.2766 12.269L55.9359 18.6534L56.4703 19.275Z" fill="url(#paint14_linear)"/>
<defs>
<linearGradient id="paint0_linear" x1="20.479" y1="48.004" x2="44.7441" y2="17.0952" gradientUnits="userSpaceOnUse">
<stop stop-color="#9D9792"/>
<stop offset="0.08" stop-color="#CECAC5"/>
<stop offset="0.14" stop-color="#ECE8E3"/>
<stop offset="0.26" stop-color="#EDEAE7"/>
<stop offset="0.36" stop-color="#ECE8E3"/>
<stop offset="0.49" stop-color="#9D9792"/>
<stop offset="0.56" stop-color="#CECAC5"/>
<stop offset="0.61" stop-color="#ECE8E3"/>
<stop offset="0.72" stop-color="#EDEAE7"/>
<stop offset="0.84" stop-color="#ECE8E3"/>
<stop offset="1" stop-color="#9D9792"/>
</linearGradient>
<linearGradient id="paint1_linear" x1="27.1428" y1="32.1153" x2="47.3205" y2="18.2067" gradientUnits="userSpaceOnUse">
<stop stop-color="#9D9792"/>
<stop offset="0.08" stop-color="#CECAC5"/>
<stop offset="0.14" stop-color="#ECE8E3"/>
<stop offset="0.26" stop-color="#EDEAE7"/>
<stop offset="0.36" stop-color="#ECE8E3"/>
<stop offset="0.49" stop-color="#9D9792"/>
<stop offset="0.56" stop-color="#CECAC5"/>
<stop offset="0.61" stop-color="#ECE8E3"/>
<stop offset="0.72" stop-color="#EDEAE7"/>
<stop offset="0.84" stop-color="#ECE8E3"/>
<stop offset="1" stop-color="#9D9792"/>
</linearGradient>
<linearGradient id="paint2_linear" x1="17.269" y1="35.0767" x2="57.8556" y2="-4.89388" gradientUnits="userSpaceOnUse">
<stop stop-color="#9D9792"/>
<stop offset="0.08" stop-color="#CECAC5"/>
<stop offset="0.14" stop-color="#ECE8E3"/>
<stop offset="0.26" stop-color="#EDEAE7"/>
<stop offset="0.36" stop-color="#ECE8E3"/>
<stop offset="0.49" stop-color="#9D9792"/>
<stop offset="0.56" stop-color="#CECAC5"/>
<stop offset="0.61" stop-color="#ECE8E3"/>
<stop offset="0.72" stop-color="#EDEAE7"/>
<stop offset="0.84" stop-color="#ECE8E3"/>
<stop offset="1" stop-color="#9D9792"/>
</linearGradient>
<linearGradient id="paint3_linear" x1="1.7771" y1="41.3909" x2="34.0642" y2="30.923" gradientUnits="userSpaceOnUse">
<stop stop-color="#9D9792"/>
<stop offset="0.08" stop-color="#CECAC5"/>
<stop offset="0.14" stop-color="#ECE8E3"/>
<stop offset="0.26" stop-color="#EDEAE7"/>
<stop offset="0.36" stop-color="#ECE8E3"/>
<stop offset="0.49" stop-color="#9D9792"/>
<stop offset="0.56" stop-color="#CECAC5"/>
<stop offset="0.61" stop-color="#ECE8E3"/>
<stop offset="0.72" stop-color="#EDEAE7"/>
<stop offset="0.84" stop-color="#ECE8E3"/>
<stop offset="1" stop-color="#9D9792"/>
</linearGradient>
<linearGradient id="paint4_linear" x1="19.9705" y1="13.638" x2="44.0705" y2="-21.6809" gradientUnits="userSpaceOnUse">
<stop stop-color="#9D9792"/>
<stop offset="0.08" stop-color="#CECAC5"/>
<stop offset="0.14" stop-color="#ECE8E3"/>
<stop offset="0.26" stop-color="#EDEAE7"/>
<stop offset="0.36" stop-color="#ECE8E3"/>
<stop offset="0.49" stop-color="#9D9792"/>
<stop offset="0.56" stop-color="#CECAC5"/>
<stop offset="0.61" stop-color="#ECE8E3"/>
<stop offset="0.72" stop-color="#EDEAE7"/>
<stop offset="0.84" stop-color="#ECE8E3"/>
<stop offset="1" stop-color="#9D9792"/>
</linearGradient>
<linearGradient id="paint5_linear" x1="50.1802" y1="45.1878" x2="82.4673" y2="34.7199" gradientUnits="userSpaceOnUse">
<stop stop-color="#9D9792"/>
<stop offset="0.08" stop-color="#CECAC5"/>
<stop offset="0.14" stop-color="#ECE8E3"/>
<stop offset="0.26" stop-color="#EDEAE7"/>
<stop offset="0.36" stop-color="#ECE8E3"/>
<stop offset="0.49" stop-color="#9D9792"/>
<stop offset="0.56" stop-color="#CECAC5"/>
<stop offset="0.61" stop-color="#ECE8E3"/>
<stop offset="0.72" stop-color="#EDEAE7"/>
<stop offset="0.84" stop-color="#ECE8E3"/>
<stop offset="1" stop-color="#9D9792"/>
</linearGradient>
<linearGradient id="paint6_linear" x1="16.1736" y1="62.0155" x2="40.5289" y2="26.5976" gradientUnits="userSpaceOnUse">
<stop stop-color="#9D9792"/>
<stop offset="0.08" stop-color="#CECAC5"/>
<stop offset="0.14" stop-color="#ECE8E3"/>
<stop offset="0.26" stop-color="#EDEAE7"/>
<stop offset="0.36" stop-color="#ECE8E3"/>
<stop offset="0.49" stop-color="#9D9792"/>
<stop offset="0.56" stop-color="#CECAC5"/>
<stop offset="0.61" stop-color="#ECE8E3"/>
<stop offset="0.72" stop-color="#EDEAE7"/>
<stop offset="0.84" stop-color="#ECE8E3"/>
<stop offset="1" stop-color="#9D9792"/>
</linearGradient>
<linearGradient id="paint7_linear" x1="47.7297" y1="60.8416" x2="69.2298" y2="45.8285" gradientUnits="userSpaceOnUse">
<stop stop-color="#9D9792"/>
<stop offset="0.08" stop-color="#CECAC5"/>
<stop offset="0.14" stop-color="#ECE8E3"/>
<stop offset="0.26" stop-color="#EDEAE7"/>
<stop offset="0.36" stop-color="#ECE8E3"/>
<stop offset="0.49" stop-color="#9D9792"/>
<stop offset="0.56" stop-color="#CECAC5"/>
<stop offset="0.61" stop-color="#ECE8E3"/>
<stop offset="0.72" stop-color="#EDEAE7"/>
<stop offset="0.84" stop-color="#ECE8E3"/>
<stop offset="1" stop-color="#9D9792"/>
</linearGradient>
<linearGradient id="paint8_linear" x1="61.1218" y1="54.9666" x2="66.3159" y2="51.8535" gradientUnits="userSpaceOnUse">
<stop stop-color="#9D9792"/>
<stop offset="0.08" stop-color="#CECAC5"/>
<stop offset="0.14" stop-color="#ECE8E3"/>
<stop offset="0.26" stop-color="#EDEAE7"/>
<stop offset="0.36" stop-color="#ECE8E3"/>
<stop offset="0.49" stop-color="#9D9792"/>
<stop offset="0.56" stop-color="#CECAC5"/>
<stop offset="0.61" stop-color="#ECE8E3"/>
<stop offset="0.72" stop-color="#EDEAE7"/>
<stop offset="0.84" stop-color="#ECE8E3"/>
<stop offset="1" stop-color="#9D9792"/>
</linearGradient>
<linearGradient id="paint9_linear" x1="3.22721" y1="58.3526" x2="24.7975" y2="43.6632" gradientUnits="userSpaceOnUse">
<stop stop-color="#9D9792"/>
<stop offset="0.08" stop-color="#CECAC5"/>
<stop offset="0.14" stop-color="#ECE8E3"/>
<stop offset="0.26" stop-color="#EDEAE7"/>
<stop offset="0.36" stop-color="#ECE8E3"/>
<stop offset="0.49" stop-color="#9D9792"/>
<stop offset="0.56" stop-color="#CECAC5"/>
<stop offset="0.61" stop-color="#ECE8E3"/>
<stop offset="0.72" stop-color="#EDEAE7"/>
<stop offset="0.84" stop-color="#ECE8E3"/>
<stop offset="1" stop-color="#9D9792"/>
</linearGradient>
<linearGradient id="paint10_linear" x1="10.5369" y1="63.4691" x2="15.5235" y2="59.5165" gradientUnits="userSpaceOnUse">
<stop stop-color="#9D9792"/>
<stop offset="0.08" stop-color="#CECAC5"/>
<stop offset="0.14" stop-color="#ECE8E3"/>
<stop offset="0.26" stop-color="#EDEAE7"/>
<stop offset="0.36" stop-color="#ECE8E3"/>
<stop offset="0.49" stop-color="#9D9792"/>
<stop offset="0.56" stop-color="#CECAC5"/>
<stop offset="0.61" stop-color="#ECE8E3"/>
<stop offset="0.72" stop-color="#EDEAE7"/>
<stop offset="0.84" stop-color="#ECE8E3"/>
<stop offset="1" stop-color="#9D9792"/>
</linearGradient>
<linearGradient id="paint11_linear" x1="5.68283" y1="13.7241" x2="27.1843" y2="-1.28847" gradientUnits="userSpaceOnUse">
<stop stop-color="#9D9792"/>
<stop offset="0.08" stop-color="#CECAC5"/>
<stop offset="0.14" stop-color="#ECE8E3"/>
<stop offset="0.26" stop-color="#EDEAE7"/>
<stop offset="0.36" stop-color="#ECE8E3"/>
<stop offset="0.49" stop-color="#9D9792"/>
<stop offset="0.56" stop-color="#CECAC5"/>
<stop offset="0.61" stop-color="#ECE8E3"/>
<stop offset="0.72" stop-color="#EDEAE7"/>
<stop offset="0.84" stop-color="#ECE8E3"/>
<stop offset="1" stop-color="#9D9792"/>
</linearGradient>
<linearGradient id="paint12_linear" x1="2.09967" y1="13.236" x2="7.29382" y2="10.1228" gradientUnits="userSpaceOnUse">
<stop stop-color="#9D9792"/>
<stop offset="0.08" stop-color="#CECAC5"/>
<stop offset="0.14" stop-color="#ECE8E3"/>
<stop offset="0.26" stop-color="#EDEAE7"/>
<stop offset="0.36" stop-color="#ECE8E3"/>
<stop offset="0.49" stop-color="#9D9792"/>
<stop offset="0.56" stop-color="#CECAC5"/>
<stop offset="0.61" stop-color="#ECE8E3"/>
<stop offset="0.72" stop-color="#EDEAE7"/>
<stop offset="0.84" stop-color="#ECE8E3"/>
<stop offset="1" stop-color="#9D9792"/>
</linearGradient>
<linearGradient id="paint13_linear" x1="52.2675" y1="4.44642" x2="57.2542" y2="0.493855" gradientUnits="userSpaceOnUse">
<stop stop-color="#9D9792"/>
<stop offset="0.08" stop-color="#CECAC5"/>
<stop offset="0.14" stop-color="#ECE8E3"/>
<stop offset="0.26" stop-color="#EDEAE7"/>
<stop offset="0.36" stop-color="#ECE8E3"/>
<stop offset="0.49" stop-color="#9D9792"/>
<stop offset="0.56" stop-color="#CECAC5"/>
<stop offset="0.61" stop-color="#ECE8E3"/>
<stop offset="0.72" stop-color="#EDEAE7"/>
<stop offset="0.84" stop-color="#ECE8E3"/>
<stop offset="1" stop-color="#9D9792"/>
</linearGradient>
<linearGradient id="paint14_linear" x1="50.3465" y1="16.3169" x2="71.9168" y2="1.62748" gradientUnits="userSpaceOnUse">
<stop stop-color="#9D9792"/>
<stop offset="0.08" stop-color="#CECAC5"/>
<stop offset="0.14" stop-color="#ECE8E3"/>
<stop offset="0.26" stop-color="#EDEAE7"/>
<stop offset="0.36" stop-color="#ECE8E3"/>
<stop offset="0.49" stop-color="#9D9792"/>
<stop offset="0.56" stop-color="#CECAC5"/>
<stop offset="0.61" stop-color="#ECE8E3"/>
<stop offset="0.72" stop-color="#EDEAE7"/>
<stop offset="0.84" stop-color="#ECE8E3"/>
<stop offset="1" stop-color="#9D9792"/>
</linearGradient>
</defs>
</svg>
