<svg width="71" height="71" viewBox="0 0 71 71" fill="none" xmlns="http://www.w3.org/2000/svg">
<path d="M65.4531 17.7501H64.0123C65.2996 16.3142 66.1435 14.5363 66.4421 12.6312C66.7407 10.726 66.4812 8.77521 65.6949 7.01438C64.9087 5.25355 63.6293 3.75809 62.0115 2.70868C60.3937 1.65927 58.5065 1.10083 56.5781 1.10083C54.6497 1.10083 52.7626 1.65927 51.1447 2.70868C49.5269 3.75809 48.2476 5.25355 47.4613 7.01438C46.6751 8.77521 46.4156 10.726 46.7142 12.6312C47.0128 14.5363 47.8567 16.3142 49.1439 17.7501H35.5V6.65632C35.5 6.3621 35.3831 6.07992 35.1751 5.87187C34.967 5.66383 34.6848 5.54695 34.3906 5.54695H29.9531C29.6589 5.54695 29.3767 5.66383 29.1687 5.87187C28.9606 6.07992 28.8438 6.3621 28.8438 6.65632V17.7501H27.7344V2.21882C27.7344 1.9246 27.6175 1.64242 27.4094 1.43437C27.2014 1.22633 26.9192 1.10945 26.625 1.10945H22.1875C21.8933 1.10945 21.6111 1.22633 21.4031 1.43437C21.195 1.64242 21.0781 1.9246 21.0781 2.21882V17.7501H19.9688V9.98445C19.9688 9.69022 19.8519 9.40805 19.6438 9.2C19.4358 8.99195 19.1536 8.87507 18.8594 8.87507H14.4219C14.1277 8.87507 13.8455 8.99195 13.6374 9.2C13.4294 9.40805 13.3125 9.69022 13.3125 9.98445V17.7501H5.54688C4.37038 17.7514 3.24245 18.2193 2.41055 19.0512C1.57864 19.8831 1.1107 21.0111 1.10938 22.1876V55.4688C1.1107 56.6453 1.57864 57.7732 2.41055 58.6051C3.24245 59.4371 4.37038 59.905 5.54688 59.9063H28.4139L26.9342 64.3438H23.2969C23.0027 64.3438 22.7205 64.4607 22.5124 64.6687C22.3044 64.8768 22.1875 65.159 22.1875 65.4532V67.6719H11.0938C10.7995 67.6719 10.5174 67.7888 10.3093 67.9969C10.1013 68.2049 9.98438 68.4871 9.98438 68.7813C9.98438 69.0755 10.1013 69.3577 10.3093 69.5658C10.5174 69.7738 10.7995 69.8907 11.0938 69.8907H59.9062C60.2005 69.8907 60.4827 69.7738 60.6907 69.5658C60.8987 69.3577 61.0156 69.0755 61.0156 68.7813C61.0156 68.4871 60.8987 68.2049 60.6907 67.9969C60.4827 67.7888 60.2005 67.6719 59.9062 67.6719H48.8125V65.4532C48.8125 65.159 48.6956 64.8768 48.4876 64.6687C48.2795 64.4607 47.9973 64.3438 47.7031 64.3438H44.0658L42.5861 59.9063H65.4531C66.6296 59.905 67.7575 59.4371 68.5894 58.6051C69.4214 57.7732 69.8893 56.6453 69.8906 55.4688V22.1876C69.8893 21.0111 69.4214 19.8831 68.5894 19.0512C67.7575 18.2193 66.6296 17.7514 65.4531 17.7501ZM57.6875 3.40862C59.3455 3.65057 60.8811 4.42125 62.0659 5.60605C63.2507 6.79085 64.0214 8.32645 64.2633 9.98445H57.6875V3.40862ZM57.0371 12.2032H64.2633C64.0717 13.5362 63.5365 14.7965 62.7103 15.86C61.884 16.9235 60.7953 17.7538 59.551 18.269C58.3067 18.7843 56.9497 18.9668 55.6135 18.7988C54.2773 18.6307 53.0078 18.1178 51.9298 17.3105L57.0371 12.2032ZM48.8125 11.0938C48.8152 9.22728 49.489 7.42394 50.711 6.01303C51.933 4.60211 53.6217 3.67773 55.4688 3.40862V10.6348L50.3615 15.7421C49.3545 14.4018 48.8108 12.7703 48.8125 11.0938ZM31.0625 7.7657H33.2812V28.8438H31.0625V7.7657ZM27.7344 19.9688H28.8438V28.8438H27.7344V19.9688ZM23.2969 3.3282H25.5156V28.8438H23.2969V3.3282ZM19.9688 19.9688H21.0781V28.8438H19.9688V19.9688ZM15.5312 11.0938H17.75V28.8438H15.5312V11.0938ZM46.5938 66.5626V67.6719H24.4062V66.5626H46.5938ZM29.2736 64.3438L30.7533 59.9063H40.2467L41.7264 64.3438H29.2736ZM67.6719 55.4688C67.6711 56.057 67.4371 56.6209 67.0212 57.0369C66.6052 57.4528 66.0413 57.6868 65.4531 57.6876H5.54688C4.95866 57.6868 4.39476 57.4528 3.97883 57.0369C3.5629 56.6209 3.3289 56.057 3.32812 55.4688V53.2501H67.6719V55.4688ZM67.6719 51.0313H3.32812V22.1876C3.3289 21.5994 3.5629 21.0355 3.97883 20.6195C4.39476 20.2036 4.95866 19.9696 5.54688 19.9688H13.3125V28.8438H12.2031V22.1876C12.2031 21.8933 12.0862 21.6112 11.8782 21.4031C11.6701 21.1951 11.388 21.0782 11.0938 21.0782H6.65625C6.36203 21.0782 6.07985 21.1951 5.8718 21.4031C5.66376 21.6112 5.54688 21.8933 5.54688 22.1876V29.9532C5.54688 30.2474 5.66376 30.5296 5.8718 30.7376C6.07985 30.9457 6.36203 31.0626 6.65625 31.0626H42.1562C42.4505 31.0626 42.7327 30.9457 42.9407 30.7376C43.1487 30.5296 43.2656 30.2474 43.2656 29.9532V22.1876C43.2656 21.8933 43.1487 21.6112 42.9407 21.4031C42.7327 21.1951 42.4505 21.0782 42.1562 21.0782H37.7188C37.4245 21.0782 37.1423 21.1951 36.9343 21.4031C36.7263 21.6112 36.6094 21.8933 36.6094 22.1876V28.8438H35.5V19.9688H52.013C53.4243 20.6978 54.9897 21.0782 56.5781 21.0782C58.1666 21.0782 59.7319 20.6978 61.1432 19.9688H65.4531C66.0413 19.9696 66.6052 20.2036 67.0212 20.6195C67.4371 21.0355 67.6711 21.5994 67.6719 22.1876V51.0313ZM9.98438 23.2969V28.8438H7.76562V23.2969H9.98438ZM38.8281 28.8438V23.2969H41.0469V28.8438H38.8281Z" fill="#ADA8A3"/>
<path d="M13.3125 54.3594H6.65625C6.36203 54.3594 6.07985 54.4763 5.8718 54.6843C5.66376 54.8924 5.54688 55.1745 5.54688 55.4688C5.54688 55.763 5.66376 56.0451 5.8718 56.2532C6.07985 56.4612 6.36203 56.5781 6.65625 56.5781H13.3125C13.6067 56.5781 13.8889 56.4612 14.0969 56.2532C14.305 56.0451 14.4219 55.763 14.4219 55.4688C14.4219 55.1745 14.305 54.8924 14.0969 54.6843C13.8889 54.4763 13.6067 54.3594 13.3125 54.3594Z" fill="#ADA8A3"/>
<path d="M17.75 54.3594H16.6406C16.3464 54.3594 16.0642 54.4763 15.8562 54.6843C15.6481 54.8924 15.5312 55.1745 15.5312 55.4688C15.5312 55.763 15.6481 56.0451 15.8562 56.2532C16.0642 56.4612 16.3464 56.5781 16.6406 56.5781H17.75C18.0442 56.5781 18.3264 56.4612 18.5344 56.2532C18.7425 56.0451 18.8594 55.763 18.8594 55.4688C18.8594 55.1745 18.7425 54.8924 18.5344 54.6843C18.3264 54.4763 18.0442 54.3594 17.75 54.3594Z" fill="#ADA8A3"/>
<path d="M47.7031 28.8438C47.8488 28.844 47.9932 28.8154 48.1278 28.7596C48.2624 28.7038 48.3847 28.622 48.4876 28.5188L52.6 24.4063H62.125C62.4192 24.4063 62.7014 24.2894 62.9094 24.0813C63.1175 23.8733 63.2344 23.5911 63.2344 23.2969C63.2344 23.0027 63.1175 22.7205 62.9094 22.5124C62.7014 22.3044 62.4192 22.1875 62.125 22.1875H52.1406C51.9949 22.1875 51.8507 22.2162 51.7161 22.2719C51.5815 22.3277 51.4592 22.4094 51.3562 22.5124L46.9187 26.9499C46.7635 27.1051 46.6578 27.3027 46.615 27.5179C46.5722 27.7331 46.5942 27.9562 46.6782 28.1589C46.7621 28.3616 46.9043 28.5349 47.0868 28.6568C47.2692 28.7787 47.4837 28.8438 47.7031 28.8438Z" fill="#ADA8A3"/>
<path d="M62.125 41.0469C61.542 41.0473 60.9694 41.2008 60.4644 41.4922C59.9594 41.7835 59.5398 42.2023 59.2476 42.7068L47.6338 35.9313C47.4764 35.1753 47.0611 34.4975 46.4589 34.0141C45.8568 33.5307 45.1052 33.2717 44.3331 33.2815C43.5609 33.2914 42.8163 33.5694 42.2266 34.068C41.6369 34.5666 41.239 35.2547 41.101 36.0145L29.4137 44.7799C29.0957 44.2903 28.6545 43.893 28.1343 43.628C27.6141 43.363 27.0333 43.2396 26.4503 43.2702C25.8674 43.3009 25.3027 43.4845 24.8132 43.8025C24.3236 44.1206 23.9264 44.562 23.6616 45.0822L12.1102 40.2689C11.928 39.509 11.4842 38.8374 10.8566 38.3717C10.229 37.906 9.45763 37.6759 8.67748 37.7216C7.89733 37.7674 7.15814 38.0862 6.58933 38.6221C6.02053 39.158 5.65835 39.8769 5.56622 40.6529C5.47409 41.429 5.65788 42.2127 6.0854 42.8669C6.51293 43.5211 7.15695 44.004 7.90469 44.2312C8.65244 44.4583 9.45627 44.4152 10.1754 44.1094C10.8946 43.8036 11.4833 43.2545 11.8384 42.5584L23.3898 47.3717C23.5681 48.1139 23.9962 48.7722 24.6023 49.2363C25.2084 49.7003 25.9556 49.9419 26.7187 49.9204C27.4817 49.8989 28.2141 49.6158 28.7932 49.1184C29.3723 48.6211 29.7627 47.9397 29.899 47.1887L41.5863 38.4232C41.8959 38.9002 42.3227 39.2897 42.8258 39.5547C43.329 39.8196 43.8917 39.9511 44.4601 39.9365C45.0286 39.9218 45.5838 39.7617 46.0727 39.4712C46.5615 39.1808 46.9677 38.7698 47.2524 38.2776L58.8662 45.0531C58.9944 45.6691 59.2946 46.2361 59.7319 46.6884C60.1692 47.1407 60.7258 47.4598 61.3371 47.6086C61.9485 47.7575 62.5894 47.73 63.1858 47.5294C63.7821 47.3288 64.3093 46.9632 64.7063 46.4751C65.1034 45.9871 65.3539 45.3964 65.4289 44.7717C65.5039 44.1471 65.4003 43.5139 65.1301 42.9457C64.8599 42.3775 64.4342 41.8976 63.9023 41.5615C63.3704 41.2254 62.7542 41.047 62.125 41.0469ZM9.98438 41.0524C9.98364 41.3471 9.86595 41.6295 9.65717 41.8375C9.44838 42.0455 9.16556 42.1622 8.87084 42.1618C8.57612 42.1614 8.2936 42.0441 8.08533 41.8356C7.87706 41.627 7.76008 41.3444 7.76008 41.0496C7.76008 40.7549 7.87706 40.4723 8.08533 40.2637C8.2936 40.0552 8.57612 39.9379 8.87084 39.9375C9.16556 39.9371 9.44838 40.0538 9.65717 40.2618C9.86595 40.4698 9.98364 40.7522 9.98438 41.0469V41.0524ZM26.625 47.7031C26.3309 47.7027 26.049 47.5857 25.841 47.3777C25.633 47.1698 25.516 46.8878 25.5156 46.5937V46.5882C25.5167 46.369 25.5827 46.1551 25.7053 45.9734C25.8278 45.7917 26.0015 45.6504 26.2043 45.5672C26.4071 45.4841 26.63 45.4629 26.8448 45.5064C27.0596 45.5498 27.2568 45.6559 27.4114 45.8113C27.566 45.9666 27.6711 46.1643 27.7134 46.3794C27.7558 46.5944 27.7335 46.8172 27.6494 47.0196C27.5653 47.2219 27.4231 47.3949 27.2408 47.5165C27.0584 47.6382 26.8442 47.7031 26.625 47.7031ZM44.375 37.7187C44.1556 37.7187 43.9411 37.6537 43.7587 37.5318C43.5762 37.4099 43.434 37.2366 43.3501 37.0339C43.2661 36.8312 43.2441 36.6081 43.2869 36.3929C43.3297 36.1777 43.4354 35.9801 43.5905 35.8249C43.7457 35.6698 43.9434 35.5641 44.1586 35.5213C44.3738 35.4785 44.5968 35.5005 44.7995 35.5844C45.0022 35.6684 45.1755 35.8106 45.2974 35.993C45.4193 36.1755 45.4844 36.39 45.4844 36.6094C45.484 36.9035 45.367 37.1854 45.159 37.3934C44.951 37.6013 44.6691 37.7183 44.375 37.7187ZM62.125 45.4844C61.9056 45.4844 61.6911 45.4193 61.5087 45.2974C61.3262 45.1755 61.184 45.0022 61.1001 44.7995C61.0161 44.5968 60.9941 44.3738 61.0369 44.1586C61.0797 43.9434 61.1854 43.7457 61.3405 43.5905C61.4957 43.4354 61.6934 43.3297 61.9086 43.2869C62.1238 43.2441 62.3468 43.2661 62.5495 43.3501C62.7522 43.434 62.9255 43.5762 63.0474 43.7587C63.1693 43.9411 63.2344 44.1556 63.2344 44.375C63.234 44.6691 63.117 44.951 62.909 45.159C62.701 45.367 62.4191 45.484 62.125 45.4844Z" fill="#ADA8A3"/>
<path d="M53.25 47.7031H45.4844C45.1902 47.7031 44.908 47.82 44.6999 48.0281C44.4919 48.2361 44.375 48.5183 44.375 48.8125C44.375 49.1067 44.4919 49.3889 44.6999 49.5969C44.908 49.805 45.1902 49.9219 45.4844 49.9219H53.25C53.5442 49.9219 53.8264 49.805 54.0344 49.5969C54.2425 49.3889 54.3594 49.1067 54.3594 48.8125C54.3594 48.5183 54.2425 48.2361 54.0344 48.0281C53.8264 47.82 53.5442 47.7031 53.25 47.7031Z" fill="#ADA8A3"/>
<path d="M53.25 44.375H49.9219C49.6277 44.375 49.3455 44.4919 49.1374 44.6999C48.9294 44.908 48.8125 45.1902 48.8125 45.4844C48.8125 45.7786 48.9294 46.0608 49.1374 46.2688C49.3455 46.4769 49.6277 46.5938 49.9219 46.5938H53.25C53.5442 46.5938 53.8264 46.4769 54.0344 46.2688C54.2425 46.0608 54.3594 45.7786 54.3594 45.4844C54.3594 45.1902 54.2425 44.908 54.0344 44.6999C53.8264 44.4919 53.5442 44.375 53.25 44.375Z" fill="#ADA8A3"/>
<path d="M6.65625 34.3906H18.8594C19.1536 34.3906 19.4358 34.2737 19.6438 34.0657C19.8519 33.8576 19.9688 33.5755 19.9688 33.2812C19.9688 32.987 19.8519 32.7049 19.6438 32.4968C19.4358 32.2888 19.1536 32.1719 18.8594 32.1719H6.65625C6.36203 32.1719 6.07985 32.2888 5.8718 32.4968C5.66376 32.7049 5.54688 32.987 5.54688 33.2812C5.54688 33.5755 5.66376 33.8576 5.8718 34.0657C6.07985 34.2737 6.36203 34.3906 6.65625 34.3906Z" fill="#ADA8A3"/>
<path d="M22.1875 34.3906H23.2969C23.5911 34.3906 23.8733 34.2737 24.0813 34.0657C24.2894 33.8576 24.4062 33.5755 24.4062 33.2812C24.4062 32.987 24.2894 32.7049 24.0813 32.4968C23.8733 32.2888 23.5911 32.1719 23.2969 32.1719H22.1875C21.8933 32.1719 21.6111 32.2888 21.4031 32.4968C21.195 32.7049 21.0781 32.987 21.0781 33.2812C21.0781 33.5755 21.195 33.8576 21.4031 34.0657C21.6111 34.2737 21.8933 34.3906 22.1875 34.3906Z" fill="#ADA8A3"/>
</svg>
