<svg width="64" height="64" viewBox="0 0 64 64" fill="none" xmlns="http://www.w3.org/2000/svg">
<path d="M60 1H4C3.20468 1.00106 2.44223 1.31747 1.87985 1.87985C1.31747 2.44223 1.00106 3.20468 1 4V60C1.00106 60.7953 1.31747 61.5578 1.87985 62.1202C2.44223 62.6825 3.20468 62.9989 4 63H60C60.7953 62.9989 61.5578 62.6825 62.1202 62.1202C62.6825 61.5578 62.9989 60.7953 63 60V4C62.9989 3.20468 62.6825 2.44223 62.1202 1.87985C61.5578 1.31747 60.7953 1.00106 60 1ZM61 60C60.9996 60.2651 60.8942 60.5192 60.7067 60.7067C60.5192 60.8942 60.2651 60.9996 60 61H4C3.7349 60.9996 3.48075 60.8942 3.29329 60.7067C3.10584 60.5192 3.00036 60.2651 3 60V9H61V60ZM61 7H3V4C3.00036 3.7349 3.10584 3.48075 3.29329 3.29329C3.48075 3.10584 3.7349 3.00036 4 3H60C60.2651 3.00036 60.5192 3.10584 60.7067 3.29329C60.8942 3.48075 60.9996 3.7349 61 4V7Z" fill="#9D9792"/>
<path d="M6 6C6.55228 6 7 5.55228 7 5C7 4.44772 6.55228 4 6 4C5.44772 4 5 4.44772 5 5C5 5.55228 5.44772 6 6 6Z" fill="#9D9792"/>
<path d="M9 6C9.55228 6 10 5.55228 10 5C10 4.44772 9.55228 4 9 4C8.44772 4 8 4.44772 8 5C8 5.55228 8.44772 6 9 6Z" fill="#9D9792"/>
<path d="M12 6C12.5523 6 13 5.55228 13 5C13 4.44772 12.5523 4 12 4C11.4477 4 11 4.44772 11 5C11 5.55228 11.4477 6 12 6Z" fill="#9D9792"/>
<path d="M57.7488 52.0913L47.1425 41.485C46.9547 41.2977 46.7003 41.1925 46.435 41.1925C46.1698 41.1925 45.9153 41.2977 45.7275 41.485L44.0688 39.8262C45.2548 37.8972 45.9179 35.6924 45.9929 33.4291C46.0678 31.1659 45.552 28.9221 44.4963 26.9188L56 15.4137V17C56 17.2652 56.1054 17.5196 56.2929 17.7071C56.4804 17.8946 56.7348 18 57 18C57.2652 18 57.5196 17.8946 57.7071 17.7071C57.8946 17.5196 58 17.2652 58 17V13C58 12.7348 57.8946 12.4804 57.7071 12.2929C57.5196 12.1054 57.2652 12 57 12H53C52.7348 12 52.4804 12.1054 52.2929 12.2929C52.1054 12.4804 52 12.7348 52 13C52 13.2652 52.1054 13.5196 52.2929 13.7071C52.4804 13.8946 52.7348 14 53 14H54.5863L43.395 25.1912C43.027 24.7024 42.6252 24.2401 42.1925 23.8075C39.7631 21.3966 36.481 20.041 33.0584 20.0349C29.6358 20.0288 26.3488 21.3727 23.9109 23.7749C21.473 26.1771 20.0807 29.4439 20.0363 32.8662C19.9919 36.2886 21.2989 39.5903 23.6738 42.055C23.5304 42.1045 23.4001 42.1856 23.2925 42.2925L21 44.5863L18.7075 42.2925C18.5197 42.1052 18.2653 42 18 42C17.7347 42 17.4803 42.1052 17.2925 42.2925L8.7925 50.7925C8.69959 50.8854 8.62589 50.9957 8.57561 51.1171C8.52532 51.2385 8.49944 51.3686 8.49944 51.5C8.49944 51.6314 8.52532 51.7615 8.57561 51.8829C8.62589 52.0043 8.69959 52.1146 8.7925 52.2075C8.88541 52.3004 8.99571 52.3741 9.1171 52.4244C9.2385 52.4747 9.3686 52.5006 9.5 52.5006C9.63139 52.5006 9.7615 52.4747 9.8829 52.4244C10.0043 52.3741 10.1146 52.3004 10.2075 52.2075L18 44.4137L20.2925 46.7075C20.4803 46.8948 20.7347 47 21 47C21.2653 47 21.5197 46.8948 21.7075 46.7075L24.7075 43.7075C24.8389 43.5754 24.9307 43.4091 24.9725 43.2275C27.0659 44.8685 29.6117 45.8288 32.2674 45.9792C34.923 46.1296 37.561 45.4629 39.8263 44.0687L41.485 45.7275C41.2977 45.9153 41.1925 46.1697 41.1925 46.435C41.1925 46.7003 41.2977 46.9547 41.485 47.1425L52.0925 57.7487C52.6554 58.3107 53.4184 58.6263 54.2138 58.6263C55.0092 58.6263 55.7721 58.3107 56.335 57.7487L57.7488 56.335C58.3107 55.7718 58.6262 55.0087 58.6262 54.2131C58.6262 53.4175 58.3107 52.6545 57.7488 52.0913ZM40.7775 40.7775C39.184 42.3707 37.1395 43.436 34.9207 43.8292C32.7019 44.2223 30.4158 43.9245 28.3719 42.9759C26.3279 42.0273 24.6246 40.4737 23.4925 38.5254C22.3604 36.577 21.8541 34.3279 22.0421 32.0824C22.2301 29.8369 23.1034 27.7033 24.5437 25.9704C25.984 24.2374 27.9219 22.9887 30.0951 22.3931C32.2684 21.7976 34.5721 21.884 36.6946 22.6407C38.8172 23.3974 40.6561 24.7877 41.9625 26.6238L41.2438 27.3425C40.457 26.1958 39.4396 25.2259 38.2568 24.4947C37.0739 23.7634 35.7516 23.2869 34.3742 23.0956C32.9967 22.9044 31.5946 23.0025 30.2572 23.3837C28.9199 23.765 27.6768 24.421 26.6073 25.3099C25.5378 26.1988 24.6655 27.3009 24.0461 28.546C23.4267 29.7911 23.0737 31.1516 23.0099 32.5408C22.946 33.93 23.1726 35.3172 23.6752 36.6138C24.1778 37.9105 24.9453 39.088 25.9288 40.0713C27.5644 41.7072 29.7166 42.7255 32.0188 42.9525C34.321 43.1796 36.6307 42.6013 38.5544 41.3163C40.478 40.0313 41.8966 38.1191 42.5684 35.9054C43.2403 33.6918 43.1238 31.3136 42.2388 29.1763L43.0013 28.4125C43.9358 30.4544 44.2236 32.7332 43.8262 34.9433C43.4287 37.1534 42.3649 39.1892 40.7775 40.7775ZM28.8325 39.5825L36 32.4137L36.7925 33.2075C36.9803 33.3948 37.2347 33.5 37.5 33.5C37.7653 33.5 38.0197 33.3948 38.2075 33.2075L40.6725 30.7412C41.1338 32.3075 41.1047 33.9774 40.5891 35.5266C40.0736 37.0759 39.0963 38.4302 37.7884 39.4077C36.4806 40.3853 34.905 40.9391 33.2732 40.995C31.6414 41.0508 30.0316 40.6059 28.66 39.72C28.7222 39.6803 28.78 39.6342 28.8325 39.5825ZM27.4175 38.1675C27.3219 38.2631 27.2467 38.3771 27.1963 38.5025C26.4259 37.6905 25.8346 36.7259 25.4605 35.671C25.0864 34.6162 24.9379 33.4945 25.0245 32.3787C25.1111 31.2628 25.431 30.1775 25.9634 29.193C26.4958 28.2085 27.2289 27.3467 28.1152 26.6633C29.0016 25.9799 30.0216 25.4902 31.1091 25.2257C32.1967 24.9613 33.3276 24.928 34.4288 25.1281C35.53 25.3282 36.577 25.7572 37.502 26.3873C38.427 27.0175 39.2094 27.8347 39.7988 28.7862L37.5 31.0863L36.7075 30.2925C36.5197 30.1052 36.2653 30 36 30C35.7347 30 35.4803 30.1052 35.2925 30.2925L27.4175 38.1675ZM41.485 42.9L42.9 41.485L44.3138 42.9L42.9 44.3138L41.485 42.9ZM56.335 54.92L54.92 56.335C54.7323 56.522 54.4781 56.627 54.2131 56.627C53.9481 56.627 53.694 56.522 53.5063 56.335L43.6063 46.435L46.435 43.6063L56.335 53.5062C56.5218 53.6941 56.6266 53.9482 56.6266 54.2131C56.6266 54.478 56.5218 54.7321 56.335 54.92Z" fill="#9D9792"/>
<path d="M6.29288 53.2929L5.29288 54.2929C5.10534 54.4804 4.99998 54.7348 4.99998 55C4.99998 55.2652 5.10534 55.5196 5.29288 55.7072C5.48042 55.8947 5.73478 56.0001 6 56.0001C6.26523 56.0001 6.51959 55.8947 6.70713 55.7072L7.70713 54.7072C7.79999 54.6143 7.87365 54.504 7.92391 54.3827C7.97416 54.2614 8.00003 54.1314 8.00003 54C8.00003 53.8687 7.97416 53.7387 7.92391 53.6173C7.87365 53.496 7.79999 53.3858 7.70713 53.2929C7.61427 53.2 7.50403 53.1264 7.3827 53.0761C7.26137 53.0259 7.13133 53 7 53C6.86868 53 6.73864 53.0259 6.61731 53.0761C6.49598 53.1264 6.38574 53.2 6.29288 53.2929Z" fill="#9D9792"/>
<path d="M11.382 30L13.1056 33.4473C13.1887 33.6133 13.3163 33.753 13.4743 33.8507C13.6323 33.9483 13.8143 34 14 34H18C18.2652 34 18.5196 33.8946 18.7071 33.7071C18.8946 33.5196 19 33.2652 19 33C19 32.7348 18.8946 32.4804 18.7071 32.2929C18.5196 32.1054 18.2652 32 18 32H14.618L12.8944 28.5527C12.8113 28.3867 12.6837 28.247 12.5257 28.1493C12.3677 28.0517 12.1857 28 12 28H5C4.73478 28 4.48043 28.1054 4.29289 28.2929C4.10536 28.4804 4 28.7348 4 29C4 29.2652 4.10536 29.5196 4.29289 29.7071C4.48043 29.8946 4.73478 30 5 30H11.382Z" fill="#9D9792"/>
<path d="M33 51C32.7348 51 32.4804 51.1054 32.2929 51.2929C32.1054 51.4804 32 51.7348 32 52V58C32 58.2652 32.1054 58.5196 32.2929 58.7071C32.4804 58.8946 32.7348 59 33 59C33.2652 59 33.5196 58.8946 33.7071 58.7071C33.8946 58.5196 34 58.2652 34 58V52C34 51.7348 33.8946 51.4804 33.7071 51.2929C33.5196 51.1054 33.2652 51 33 51Z" fill="#9D9792"/>
<path d="M5 27H8C8.26522 27 8.51957 26.8946 8.70711 26.7071C8.89464 26.5196 9 26.2652 9 26V11C9 10.7348 8.89464 10.4804 8.70711 10.2929C8.51957 10.1054 8.26522 10 8 10H5C4.73478 10 4.48043 10.1054 4.29289 10.2929C4.10536 10.4804 4 10.7348 4 11V26C4 26.2652 4.10536 26.5196 4.29289 26.7071C4.48043 26.8946 4.73478 27 5 27ZM6 12H7V25H6V12Z" fill="#9D9792"/>
<path d="M11 27H14C14.2652 27 14.5196 26.8946 14.7071 26.7071C14.8946 26.5196 15 26.2652 15 26V17C15 16.7348 14.8946 16.4804 14.7071 16.2929C14.5196 16.1054 14.2652 16 14 16H11C10.7348 16 10.4804 16.1054 10.2929 16.2929C10.1054 16.4804 10 16.7348 10 17V26C10 26.2652 10.1054 26.5196 10.2929 26.7071C10.4804 26.8946 10.7348 27 11 27ZM12 18H13V25H12V18Z" fill="#9D9792"/>
<path d="M11 12H20C20.2652 12 20.5196 11.8946 20.7071 11.7071C20.8946 11.5196 21 11.2652 21 11C21 10.7348 20.8946 10.4804 20.7071 10.2929C20.5196 10.1054 20.2652 10 20 10H11C10.7348 10 10.4804 10.1054 10.2929 10.2929C10.1054 10.4804 10 10.7348 10 11C10 11.2652 10.1054 11.5196 10.2929 11.7071C10.4804 11.8946 10.7348 12 11 12Z" fill="#9D9792"/>
<path d="M11 15H16C16.2652 15 16.5196 14.8946 16.7071 14.7071C16.8946 14.5196 17 14.2652 17 14C17 13.7348 16.8946 13.4804 16.7071 13.2929C16.5196 13.1054 16.2652 13 16 13H11C10.7348 13 10.4804 13.1054 10.2929 13.2929C10.1054 13.4804 10 13.7348 10 14C10 14.2652 10.1054 14.5196 10.2929 14.7071C10.4804 14.8946 10.7348 15 11 15Z" fill="#9D9792"/>
<path d="M58 20H54C53.7348 20 53.4804 20.1054 53.2929 20.2929C53.1054 20.4804 53 20.7348 53 21V43C53 43.2652 53.1054 43.5196 53.2929 43.7071C53.4804 43.8946 53.7348 44 54 44H58C58.2652 44 58.5196 43.8946 58.7071 43.7071C58.8946 43.5196 59 43.2652 59 43V21C59 20.7348 58.8946 20.4804 58.7071 20.2929C58.5196 20.1054 58.2652 20 58 20ZM57 23C56.7348 23 56.4804 23.1054 56.2929 23.2929C56.1054 23.4804 56 23.7348 56 24C56 24.2652 56.1054 24.5196 56.2929 24.7071C56.4804 24.8946 56.7348 25 57 25V27C56.7348 27 56.4804 27.1054 56.2929 27.2929C56.1054 27.4804 56 27.7348 56 28C56 28.2652 56.1054 28.5196 56.2929 28.7071C56.4804 28.8946 56.7348 29 57 29V31C56.7348 31 56.4804 31.1054 56.2929 31.2929C56.1054 31.4804 56 31.7348 56 32C56 32.2652 56.1054 32.5196 56.2929 32.7071C56.4804 32.8946 56.7348 33 57 33V35C56.7348 35 56.4804 35.1054 56.2929 35.2929C56.1054 35.4804 56 35.7348 56 36C56 36.2652 56.1054 36.5196 56.2929 36.7071C56.4804 36.8946 56.7348 37 57 37V39C56.7348 39 56.4804 39.1054 56.2929 39.2929C56.1054 39.4804 56 39.7348 56 40C56 40.2652 56.1054 40.5196 56.2929 40.7071C56.4804 40.8946 56.7348 41 57 41V42H55V22H57V23Z" fill="#9D9792"/>
</svg>
