<svg width="67" height="67" viewBox="0 0 67 67" fill="none" xmlns="http://www.w3.org/2000/svg">
<path d="M48.1562 30.3594C46.1787 30.3594 44.4524 30.5698 42.9219 30.9959V25.4171L40.1937 24.5073C39.8922 23.3631 39.4682 22.2534 38.9427 21.1668C39.6148 21.3416 40.2827 21.5342 40.9475 21.7436C41.3055 23.0846 42.5178 24.0781 43.9688 24.0781H46.0625C47.794 24.0781 49.2031 22.669 49.2031 20.9375V17.5676L53.3906 16.5207V8.60427L49.2031 7.55739V4.1875C49.2031 2.45597 47.794 1.04688 46.0625 1.04688H43.9688C42.5178 1.04688 41.3055 2.04036 40.9464 3.38036C37.0688 4.60625 33.0446 5.23438 28.9733 5.23438H18.8438C15.9575 5.23438 13.6094 7.58252 13.6094 10.4688V12.4735C13.2409 12.6578 12.8682 12.8336 12.5102 13.042L9.9338 11.7533L4.42409 17.2619L5.7128 19.8383C4.85541 21.307 4.2053 22.8732 3.77398 24.5073L1.04688 25.4171V33.2069L3.77503 34.1166C4.2053 35.7508 4.85541 37.3169 5.71384 38.7857L4.42514 41.362L9.93484 46.8717L12.5112 45.583C13.98 46.4404 15.5461 47.0905 17.1803 47.5218L18.089 50.25H25.8787L26.7885 47.5218C28.0667 47.1847 29.301 46.7095 30.4819 46.1096C30.4054 46.7869 30.3594 47.4705 30.3594 48.1562C30.3594 57.9697 38.3428 65.9531 48.1562 65.9531C57.9697 65.9531 65.9531 57.9697 65.9531 48.1562C65.9531 38.3428 57.9697 30.3594 48.1562 30.3594ZM48.1562 63.8594C45.8196 63.8594 43.7028 61.3605 42.3503 57.5781H53.9622C52.6097 61.3605 50.4929 63.8594 48.1562 63.8594ZM41.7085 55.4844C41.2249 53.578 40.9276 51.4455 40.8543 49.2031H55.4593C55.386 51.4455 55.0887 53.578 54.605 55.4844H41.7085ZM32.5065 49.2031H38.7616C38.8275 51.4424 39.0987 53.5581 39.5488 55.4844H34.2789C33.2728 53.5874 32.6562 51.4591 32.5065 49.2031ZM34.035 46.8717L39.3981 41.5086C39.0369 43.2485 38.8202 45.1308 38.7616 47.1094H32.5086C32.5295 46.788 32.5526 46.4687 32.5934 46.1515L34.035 46.8717ZM48.1562 32.4531C50.4929 32.4531 52.6097 34.952 53.9622 38.7344H42.3503C43.7028 34.952 45.8196 32.4531 48.1562 32.4531ZM41.7085 40.8281H54.605C55.0887 42.7345 55.386 44.867 55.4593 47.1094H40.8532C40.9265 44.867 41.2249 42.7345 41.7085 40.8281ZM57.5509 49.2031H63.806C63.6563 51.4591 63.0397 53.5874 62.0336 55.4844H56.7637C57.2138 53.5581 57.485 51.4424 57.5509 49.2031ZM57.5509 47.1094C57.485 44.8701 57.2138 42.7544 56.7637 40.8281H62.0336C63.0397 42.7251 63.6563 44.8534 63.806 47.1094H57.5509ZM60.6894 38.7344H56.1795C55.4907 36.6165 54.5799 34.796 53.4932 33.4068C56.3815 34.4558 58.871 36.3224 60.6894 38.7344ZM43.0213 33.1692C41.4385 35.0829 40.1895 37.8613 39.4588 41.1924L38.2549 38.7867C39.1123 37.318 39.7624 35.7518 40.1937 34.1177L42.9219 33.2079V33.2027C42.9554 33.1912 42.9878 33.1797 43.0213 33.1692ZM51.2969 10.2395V14.8855L49.2031 15.409V9.71605L51.2969 10.2395ZM42.9219 4.1875C42.9219 3.61067 43.3909 3.14062 43.9688 3.14062H46.0625C46.6404 3.14062 47.1094 3.61067 47.1094 4.1875V20.9375C47.1094 21.5143 46.6404 21.9844 46.0625 21.9844H43.9688C43.3909 21.9844 42.9219 21.5143 42.9219 20.9375V4.1875ZM40.8281 5.60916V19.5148C36.9777 18.3768 32.9975 17.7969 28.9733 17.7969H24.0781V7.32812H28.9733C32.9975 7.32812 36.9777 6.74816 40.8281 5.60916ZM34.5469 29.3125C34.5469 36.2397 28.9115 41.875 21.9844 41.875C15.0572 41.875 9.42188 36.2397 9.42188 29.3125C9.42188 24.9114 11.7083 20.8736 15.4341 18.5946C16.3522 19.3913 17.5352 19.8906 18.8438 19.8906H19.8906V28.8184C19.8906 30.8221 21.5217 32.4531 23.5254 32.4531H26.7257C28.7283 32.4531 30.3594 30.8221 30.3594 28.8184C30.3594 27.4323 29.5899 26.1865 28.3504 25.5678L28.2656 25.5249V19.8906H28.9733C29.4172 19.8906 29.86 19.9021 30.3028 19.9168C32.9975 22.3058 34.5469 25.7039 34.5469 29.3125ZM27.4145 27.4396C27.939 27.7024 28.2656 28.2311 28.2656 28.8184C28.2656 29.6674 27.5747 30.3594 26.7246 30.3594H23.5243C22.6753 30.3594 21.9844 29.6674 21.9844 28.8184V19.8906H26.1719V26.8188L27.4145 27.4396ZM15.7031 10.4688C15.7031 8.73722 17.1122 7.32812 18.8438 7.32812H21.9844V17.7969H18.8438C17.1122 17.7969 15.7031 16.3878 15.7031 14.6562V10.4688ZM25.7447 45.6228L25.1711 45.7547L24.3702 48.1562H19.5975L18.7966 45.7547L18.223 45.6228C16.4171 45.2083 14.6981 44.4943 13.1132 43.5018L12.6138 43.1899L10.3473 44.3247L6.97219 40.9496L8.107 38.681L7.79503 38.1816C6.80259 36.5967 6.08862 34.8777 5.67406 33.0718L5.54216 32.4992L3.14062 31.6983V26.9256L5.54216 26.1248L5.67406 25.5521C6.08862 23.7463 6.80259 22.0273 7.79503 20.4423L8.107 19.944L6.97219 17.6754L10.3473 14.3014L12.6159 15.4351L13.1142 15.1232C13.2817 15.0185 13.4555 14.9242 13.6272 14.8258C13.6523 15.5785 13.8386 16.2862 14.1496 16.9269C9.91705 19.6048 7.32812 24.254 7.32812 29.3125C7.32812 37.3944 13.9025 43.9688 21.9844 43.9688C30.0662 43.9688 36.6406 37.3944 36.6406 29.3125C36.6406 25.9384 35.4755 22.7235 33.4005 20.1429C34.3543 20.2497 35.3027 20.3931 36.246 20.569C37.1986 22.1194 37.8916 23.7944 38.2957 25.5532L38.4276 26.1258L40.8281 26.9267V31.6994L38.4266 32.5002L38.2947 33.0729C37.8801 34.8787 37.1662 36.5988 36.1737 38.1827L35.8618 38.682L36.9966 40.9506L33.6214 44.3257L31.3529 43.1909L30.8535 43.5029C29.2696 44.4943 27.5496 45.2083 25.7447 45.6228ZM35.6231 57.5781H40.133C40.8218 59.696 41.7326 61.5165 42.8193 62.9057C39.931 61.8567 37.4415 59.9901 35.6231 57.5781ZM53.4932 62.9057C54.5799 61.5165 55.4907 59.696 56.1795 57.5781H60.6894C58.871 59.9901 56.3815 61.8567 53.4932 62.9057Z" fill="#9D9792"/>
<path d="M15.7031 59.6719H17.7969V61.7656H15.7031V59.6719Z" fill="#9D9792"/>
<path d="M7.32812 59.6719H9.42188V61.7656H7.32812V59.6719Z" fill="#9D9792"/>
<path d="M3.14062 59.6719H5.23438V61.7656H3.14062V59.6719Z" fill="#9D9792"/>
<path d="M11.5156 59.6719H13.6094V61.7656H11.5156V59.6719Z" fill="#9D9792"/>
<path d="M3.14062 55.4844H17.7969V57.5781H3.14062V55.4844Z" fill="#9D9792"/>
<path d="M3.14062 51.2969H17.7969V53.3906H3.14062V51.2969Z" fill="#9D9792"/>
<path d="M19.5179 39.488C20.2675 39.6691 21.0411 39.7675 21.819 39.779L21.8514 37.6853C21.2275 37.6759 20.6077 37.5973 20.0079 37.4529L19.5179 39.488Z" fill="#9D9792"/>
<path d="M13.6094 29.3125H11.5156C11.5156 30.0882 11.6015 30.864 11.7711 31.6177L13.8135 31.1592C13.6774 30.5551 13.6094 29.9343 13.6094 29.3125Z" fill="#9D9792"/>
<path d="M15.3828 37.4384C15.9826 37.9273 16.639 38.3502 17.3331 38.6957L18.2659 36.8207C17.711 36.5444 17.1855 36.2062 16.7039 35.8147L15.3828 37.4384Z" fill="#9D9792"/>
<path d="M14.4197 32.9116L12.5311 33.814C12.8651 34.5133 13.2775 35.1771 13.758 35.7863L15.4016 34.4903C15.0174 34.0025 14.6866 33.4717 14.4197 32.9116Z" fill="#9D9792"/>
</svg>
